<svg width="15" height="24" viewBox="0 0 15 24" fill="none" xmlns="http://www.w3.org/2000/svg">
<g clip-path="url(#clip0_277_7943)">
<path d="M14.3894 13.5822L7.19507 23.9887V18.124L14.3894 13.5822ZM10.5764 17.24L8.26692 18.6934V20.5748L10.5764 17.2401V17.24Z" fill="#5A9DED"/>
<path d="M0.000732422 13.5822L7.19511 23.9887V18.124L0.000732422 13.5822ZM3.81375 17.24L6.12326 18.6934V20.5748L3.81375 17.2401V17.24Z" fill="#53D3E0"/>
<path d="M8.10767 8.82422L12.8725 11.478L13.0414 11.9944L12.4741 12.4896L8.10767 10.0527V8.82422Z" fill="#D995D1"/>
<path d="M6.28558 8.82422L1.52071 11.478L1.35181 11.9944L1.91915 12.4896L6.28558 10.0527V8.82422Z" fill="#A6E276"/>
<path d="M7.19507 0L14.3894 12.3205L7.19507 16.8512V0ZM8.25759 3.95224V14.9525L12.9577 11.9943L8.25759 3.95219V3.95224Z" fill="#FF9C92"/>
<path d="M7.19511 0L0.000732422 12.3205L7.19511 16.8512V0ZM6.13259 3.95224V14.9525L1.43253 11.9944L6.13259 3.95224Z" fill="#FFE94D"/>
</g>
<defs>
<clipPath id="clip0_277_7943">
<rect width="14.39" height="24" fill="white"/>
</clipPath>
</defs>
</svg>
