<svg width="96" height="92" viewBox="0 0 96 92" fill="none" xmlns="http://www.w3.org/2000/svg">
<g clip-path="url(#clip0_320_283)">
<path d="M93.7747 0L52.582 31.1569L60.2422 12.7953L93.7747 0Z" fill="#E17726"/>
<path d="M2.32168 0.0368042L35.7646 12.7976L43.0381 31.4L2.32168 0.0368042ZM77.1976 66.2622L95.4042 66.6164L89.0412 88.7125L66.8251 82.46L77.1976 66.2622ZM18.8022 66.2622L29.1361 82.46L6.95743 88.7129L0.633057 66.6164L18.8022 66.2622Z" fill="#E27625"/>
<path d="M42.0492 26.6616L42.7932 51.2267L20.5291 50.1914L26.8621 40.4248L26.9423 40.3309L42.0492 26.6616ZM53.7203 26.3875L69.0578 40.3316L69.1373 40.4252L75.4703 50.1917L53.2111 51.2267L53.7203 26.3875ZM29.7882 66.3335L41.9449 76.0161L27.8232 82.9855L29.7882 66.3335ZM66.2142 66.332L68.1383 82.9859L54.0559 76.0154L66.2142 66.332Z" fill="#E27625"/>
<path d="M54.3668 75.1035L68.657 82.1767L55.3643 88.6344L55.5023 84.3663L54.3668 75.1035ZM41.6292 75.1065L40.5383 84.2966L40.628 88.6294L27.3042 82.1767L41.6292 75.1065Z" fill="#D5BFB2"/>
<path d="M37.5026 54.4329L41.2368 62.4553L28.5232 58.6481L37.5026 54.4329ZM58.4969 54.4337L67.5187 58.6481L54.7634 62.4542L58.4969 54.4337Z" fill="#233447"/>
<path d="M30.7598 66.2515L28.7048 83.5168L17.6899 66.6291L30.7598 66.2515ZM65.2411 66.2519L78.3113 66.6291L67.2552 83.5176L65.2411 66.2519ZM75.7921 49.215L66.2802 59.1246L58.9463 55.6987L55.4352 63.2443L53.1334 50.2688L75.7921 49.215ZM20.2032 49.215L42.8663 50.2688L40.5642 63.2443L37.0523 55.6999L29.7574 59.125L20.2032 49.215Z" fill="#CC6228"/>
<path d="M19.5623 47.1814L30.324 58.3445L30.6968 69.3649L19.5623 47.1814ZM76.4486 47.1615L65.2939 69.3845L65.7139 58.3445L76.4486 47.1615ZM42.3401 47.8615L42.7733 50.6483L43.8435 57.5908L43.1554 78.9138L39.9023 61.7845L39.9011 61.6074L42.3401 47.8615ZM53.6543 47.8227L56.0996 61.6074L56.0985 61.7845L52.8371 78.9567L52.7081 74.6614L52.1993 57.4643L53.6543 47.8227Z" fill="#E27525"/>
<path d="M66.6705 57.9009L66.3064 67.4758L54.9536 76.5175L52.6586 74.86L55.2311 61.3149L66.6705 57.9009ZM29.3689 57.9009L40.7685 61.3149L43.341 74.86L41.046 76.5175L29.6929 67.4751L29.3689 57.9009Z" fill="#F5841F"/>
<path d="M25.1318 80.0623L39.6563 87.0972L39.5948 84.093L40.8102 83.0024H55.1855L56.4447 84.0892L56.3517 87.0911L70.7843 80.0799L63.7613 86.0124L55.2695 91.9743H40.6936L32.2073 85.9878L25.1318 80.0623Z" fill="#C0AC9D"/>
<path d="M53.3265 74.1669L55.38 75.65L56.5833 85.4649L54.8418 83.9619H41.1633L39.4548 85.4952L40.6188 75.6508L42.6731 74.1669H53.3265Z" fill="#161616"/>
<path d="M91.0553 0.862488L96 16.026L92.9119 31.3582L95.1109 33.092L92.1353 35.4127L94.3717 37.1783L91.4104 39.9349L93.2284 41.2808L88.4036 47.0407L68.6149 41.1508L68.4435 41.0569L54.1834 28.7603L91.0553 0.862488ZM4.94475 0.862488L41.817 28.7603L27.5565 41.0569L27.3851 41.1508L7.59637 47.0407L2.77163 41.2808L4.58812 39.936L1.62862 37.1783L3.86063 35.4146L0.840375 33.0874L3.12225 31.3524L0 16.0268L4.94475 0.862488Z" fill="#763E1A"/>
<path d="M67.6469 39.8628L88.6143 46.1031L95.4262 67.5644H77.4547L65.0722 67.7239L74.0774 49.7808L67.6469 39.8628ZM28.3529 39.8628L21.9213 49.7808L30.9277 67.7239L18.5508 67.5644H0.611572L7.3852 46.1035L28.3529 39.8628ZM61.2689 12.6929L55.4043 28.8845L54.1597 50.7575L53.6834 57.6135L53.6456 75.1272H42.3539L42.3172 57.6464L41.8394 50.7518L40.5944 28.8845L34.7306 12.6929H61.2689Z" fill="#F5841F"/>
</g>
<defs>
<clipPath id="clip0_320_283">
<rect width="96" height="92" fill="white"/>
</clipPath>
</defs>
</svg>
