<svg width="183" height="74" viewBox="0 0 183 74" fill="none" xmlns="http://www.w3.org/2000/svg">
<rect x="2.5" y="2.5" width="178" height="68.2" rx="9.5" stroke="url(#paint0_linear_277_9489)" stroke-width="5"/>
<path d="M28 36.6938H24M28 32.6938V36.6938V32.6938ZM28 36.6938V40.6938V36.6938ZM28 36.6938H32H28Z" stroke="black" stroke-width="2" stroke-linecap="round"/>
<path d="M28 46.6938C33.5228 46.6938 38 42.2167 38 36.6938C38 31.171 33.5228 26.6938 28 26.6938C22.4772 26.6938 18 31.171 18 36.6938C18 42.2167 22.4772 46.6938 28 46.6938Z" stroke="black" stroke-width="2"/>
<path d="M68.2629 28.7273V44H65.8019L58.6056 33.5969H58.4788V44H55.7121V28.7273H58.188L65.3769 39.1378H65.5111V28.7273H68.2629ZM76.2292 44.2237C75.0808 44.2237 74.089 43.9851 73.2537 43.5078C72.4235 43.0256 71.7846 42.3445 71.3372 41.4645C70.8897 40.5795 70.666 39.538 70.666 38.3398C70.666 37.1616 70.8897 36.1275 71.3372 35.2376C71.7896 34.3427 72.421 33.6467 73.2314 33.1495C74.0417 32.6474 74.9938 32.3963 76.0875 32.3963C76.7935 32.3963 77.4597 32.5107 78.0861 32.7393C78.7175 32.9631 79.2743 33.3111 79.7566 33.7834C80.2438 34.2557 80.6266 34.8572 80.905 35.5881C81.1834 36.3139 81.3226 37.179 81.3226 38.1832V39.011H71.9338V37.1914H78.7349C78.7299 36.6744 78.6181 36.2145 78.3993 35.8118C78.1806 35.4041 77.8748 35.0835 77.4821 34.8498C77.0943 34.6161 76.6419 34.4993 76.1248 34.4993C75.573 34.4993 75.0883 34.6335 74.6706 34.902C74.253 35.1655 73.9274 35.5135 73.6937 35.946C73.465 36.3736 73.3482 36.8434 73.3432 37.3555V38.9439C73.3432 39.6101 73.465 40.1818 73.7086 40.6591C73.9522 41.1314 74.2928 41.4943 74.7303 41.7479C75.1678 41.9964 75.6799 42.1207 76.2665 42.1207C76.6593 42.1207 77.0147 42.0661 77.3329 41.9567C77.6511 41.8423 77.927 41.6758 78.1607 41.457C78.3944 41.2383 78.5709 40.9673 78.6902 40.6442L81.2108 40.9276C81.0517 41.5937 80.7484 42.1754 80.301 42.6726C79.8585 43.1648 79.2917 43.5476 78.6007 43.821C77.9096 44.0895 77.1192 44.2237 76.2292 44.2237ZM85.9089 44L82.6724 32.5455H85.4242L87.4377 40.5994H87.5421L89.6003 32.5455H92.3223L94.3805 40.5547H94.4924L96.476 32.5455H99.2353L95.9913 44H93.1799L91.0322 36.2592H90.8755L88.7278 44H85.9089ZM106.448 44V28.7273H116.382V31.0465H109.215V35.1928H115.867V37.5121H109.215V41.6808H116.441V44H106.448ZM127.504 32.9258C127.435 32.2745 127.141 31.7674 126.624 31.4045C126.112 31.0415 125.446 30.8601 124.626 30.8601C124.049 30.8601 123.554 30.9471 123.142 31.1211C122.729 31.2951 122.413 31.5312 122.195 31.8295C121.976 32.1278 121.864 32.4684 121.859 32.8512C121.859 33.1694 121.931 33.4453 122.075 33.679C122.225 33.9126 122.426 34.1115 122.679 34.2756C122.933 34.4347 123.214 34.5689 123.522 34.6783C123.83 34.7876 124.141 34.8796 124.454 34.9542L125.886 35.3121C126.463 35.4464 127.017 35.6278 127.549 35.8565C128.086 36.0852 128.566 36.3736 128.988 36.7216C129.416 37.0696 129.754 37.4897 130.003 37.9819C130.251 38.4741 130.375 39.0508 130.375 39.712C130.375 40.6069 130.147 41.3949 129.689 42.076C129.232 42.7521 128.571 43.2816 127.706 43.6644C126.846 44.0423 125.804 44.2312 124.581 44.2312C123.393 44.2312 122.361 44.0472 121.486 43.6793C120.616 43.3114 119.935 42.7745 119.443 42.0685C118.956 41.3626 118.692 40.5025 118.652 39.4883H121.374C121.414 40.0202 121.578 40.4627 121.867 40.8157C122.155 41.1687 122.53 41.4322 122.993 41.6062C123.46 41.7802 123.982 41.8672 124.559 41.8672C125.16 41.8672 125.687 41.7777 126.14 41.5987C126.597 41.4148 126.955 41.1612 127.214 40.8381C127.472 40.5099 127.604 40.1271 127.609 39.6896C127.604 39.2919 127.487 38.9638 127.258 38.7053C127.03 38.4418 126.709 38.223 126.296 38.049C125.889 37.87 125.411 37.7109 124.864 37.5717L123.127 37.1243C121.869 36.8011 120.875 36.3114 120.144 35.6552C119.418 34.994 119.055 34.1165 119.055 33.0227C119.055 32.1229 119.299 31.3349 119.786 30.6587C120.278 29.9826 120.947 29.4581 121.792 29.0852C122.637 28.7074 123.594 28.5185 124.663 28.5185C125.747 28.5185 126.696 28.7074 127.512 29.0852C128.332 29.4581 128.976 29.9776 129.443 30.6438C129.911 31.305 130.152 32.0657 130.167 32.9258H127.504ZM132.723 44V32.5455H135.422V44H132.723ZM134.08 30.9197C133.652 30.9197 133.284 30.7781 132.976 30.4947C132.668 30.2063 132.514 29.8608 132.514 29.4581C132.514 29.0504 132.668 28.7049 132.976 28.4215C133.284 28.1332 133.652 27.989 134.08 27.989C134.512 27.989 134.88 28.1332 135.184 28.4215C135.492 28.7049 135.646 29.0504 135.646 29.4581C135.646 29.8608 135.492 30.2063 135.184 30.4947C134.88 30.7781 134.512 30.9197 134.08 30.9197ZM143.18 48.5341C142.21 48.5341 141.378 48.4023 140.682 48.1388C139.986 47.8803 139.426 47.5323 139.004 47.0948C138.581 46.6573 138.288 46.1726 138.124 45.6406L140.555 45.0515C140.664 45.2752 140.823 45.4964 141.032 45.7152C141.241 45.9389 141.522 46.1229 141.875 46.267C142.233 46.4162 142.683 46.4908 143.225 46.4908C143.99 46.4908 144.624 46.3043 145.126 45.9315C145.628 45.5636 145.879 44.957 145.879 44.1119V41.9418H145.745C145.606 42.2202 145.402 42.506 145.134 42.7994C144.87 43.0927 144.52 43.3388 144.082 43.5376C143.65 43.7365 143.105 43.8359 142.449 43.8359C141.569 43.8359 140.771 43.6296 140.055 43.217C139.344 42.7994 138.777 42.1779 138.355 41.3526C137.937 40.5224 137.728 39.4833 137.728 38.2354C137.728 36.9776 137.937 35.9162 138.355 35.0511C138.777 34.1811 139.347 33.5224 140.063 33.0749C140.779 32.6225 141.576 32.3963 142.456 32.3963C143.128 32.3963 143.679 32.5107 144.112 32.7393C144.549 32.9631 144.897 33.234 145.156 33.5522C145.415 33.8654 145.611 34.1612 145.745 34.4396H145.894V32.5455H148.557V44.1864C148.557 45.1658 148.323 45.9762 147.856 46.6175C147.388 47.2589 146.749 47.7386 145.939 48.0568C145.129 48.375 144.209 48.5341 143.18 48.5341ZM143.202 41.718C143.774 41.718 144.261 41.5788 144.664 41.3004C145.067 41.022 145.372 40.6218 145.581 40.0998C145.79 39.5778 145.894 38.9513 145.894 38.2205C145.894 37.4996 145.79 36.8683 145.581 36.3263C145.377 35.7844 145.074 35.3643 144.671 35.0661C144.274 34.7628 143.784 34.6112 143.202 34.6112C142.601 34.6112 142.098 34.7678 141.696 35.081C141.293 35.3942 140.99 35.8242 140.786 36.3711C140.582 36.913 140.48 37.5295 140.48 38.2205C140.48 38.9215 140.582 39.5355 140.786 40.0625C140.995 40.5845 141.301 40.9922 141.703 41.2855C142.111 41.5739 142.611 41.718 143.202 41.718ZM154.023 37.2884V44H151.323V32.5455H153.904V34.4918H154.038C154.301 33.8505 154.721 33.3409 155.298 32.9631C155.88 32.5852 156.598 32.3963 157.453 32.3963C158.244 32.3963 158.932 32.5653 159.519 32.9034C160.111 33.2415 160.568 33.7312 160.891 34.3725C161.219 35.0138 161.381 35.7919 161.376 36.7067V44H158.676V37.1243C158.676 36.3587 158.477 35.7596 158.08 35.3271C157.687 34.8945 157.143 34.6783 156.446 34.6783C155.974 34.6783 155.554 34.7827 155.186 34.9915C154.823 35.1953 154.537 35.4911 154.329 35.8789C154.125 36.2667 154.023 36.7365 154.023 37.2884Z" fill="black"/>
<defs>
<linearGradient id="paint0_linear_277_9489" x1="91.5" y1="0" x2="91.5" y2="73.2" gradientUnits="userSpaceOnUse">
<stop stop-color="#7000FF" stop-opacity="0.44"/>
<stop offset="1" stop-color="#AE2727" stop-opacity="0.22"/>
</linearGradient>
</defs>
</svg>
