<svg width="27" height="24" viewBox="0 0 27 24" fill="none" xmlns="http://www.w3.org/2000/svg">
<path d="M13.7203 16.0453C13.5797 16.1859 13.5 16.3781 13.5 16.5797V19.5H16.4222C16.6221 19.5 16.8136 19.4202 16.9542 19.2784L24.3089 11.8722L21.127 8.6903L13.7203 16.0453ZM26.6484 7.84687L25.1531 6.35156C24.6902 5.88281 23.9344 5.88281 23.4656 6.35156L22.1883 7.62891L25.3702 10.8108L26.6475 9.53344C27.1172 9.06563 27.1172 8.31094 26.6484 7.84687ZM12 0V6H18L12 0ZM12 21C11.2467 20.9866 10.5647 20.5613 10.2244 19.8806C10.0896 19.6052 9.84937 19.5759 9.75 19.5759C9.65063 19.5759 9.41016 19.6052 9.28125 19.863L8.91802 20.584C8.79375 20.8406 8.48906 21 8.25 21H8.19844C7.89375 20.9766 7.63594 20.7773 7.54219 20.4844L6.75 18.1219L6.25312 19.6172C5.97656 20.4422 5.20312 21 4.33359 21H3.75C3.33422 21 3 20.6672 3 20.25C3 19.8328 3.33422 19.5 3.75 19.5H4.33125C4.55977 19.5 4.75791 19.3535 4.82812 19.1426L5.68359 16.5818C5.83594 16.1203 6.2625 15.8109 6.75 15.8109C7.2375 15.8109 7.66406 16.1215 7.81641 16.5844L8.46703 18.5358C9.39281 17.7741 11.0044 18.0787 11.5608 19.1977C11.6484 19.3687 11.8219 19.4812 12 19.4953V16.2656C12 16.0677 12.0392 15.8718 12.1152 15.6891C12.1912 15.5064 12.3026 15.3406 12.443 15.2011L18 9.67969V7.5H12C11.1717 7.5 10.5 6.82828 10.5 6V0H2.25C1.00734 0 0 1.00734 0 2.25V21.75C0 22.9922 1.00734 24 2.25 24H15.75C16.9927 24 18 22.9927 18 21.75V21H12Z" fill="black"/>
</svg>
