<svg width="18" height="16" viewBox="0 0 18 16" fill="none" xmlns="http://www.w3.org/2000/svg">
<path d="M17.106 12.615L14.2997 15.7817C14.239 15.8505 14.1655 15.9054 14.0837 15.9429C14.002 15.9805 13.9137 15.9999 13.8245 16H0.521134C0.457685 16 0.395622 15.9805 0.342544 15.9439C0.289468 15.9073 0.247683 15.8552 0.222304 15.794C0.196924 15.7328 0.189053 15.6652 0.199655 15.5993C0.210256 15.5335 0.238868 15.4723 0.28199 15.4233L3.08521 12.2567C3.14591 12.1879 3.21941 12.133 3.30117 12.0954C3.3829 12.0579 3.47113 12.0384 3.56033 12.0383H16.8637C16.9277 12.037 16.9907 12.0555 17.0448 12.0917C17.0988 12.1279 17.1415 12.1801 17.1673 12.2418C17.1933 12.3034 17.2012 12.3717 17.1903 12.4382C17.1794 12.5046 17.1501 12.5661 17.106 12.615ZM14.2997 6.23671C14.2387 6.16824 14.1652 6.11357 14.0835 6.07602C14.0018 6.03849 13.9137 6.01887 13.8245 6.01839H0.521134C0.457685 6.01842 0.395622 6.03792 0.342544 6.07452C0.289468 6.11111 0.247683 6.16319 0.222304 6.22439C0.196924 6.28559 0.189053 6.35324 0.199655 6.41907C0.210256 6.4849 0.238868 6.54607 0.28199 6.59505L3.08521 9.76338C3.14613 9.83184 3.2197 9.88651 3.30139 9.92406C3.38308 9.96159 3.4712 9.98121 3.56033 9.98169H16.8637C16.9271 9.98134 16.9888 9.96159 17.0417 9.92489C17.0946 9.88817 17.1361 9.83607 17.1613 9.77494C17.1865 9.71381 17.1943 9.64628 17.1835 9.58059C17.1729 9.51491 17.1444 9.45391 17.1013 9.40504L14.2997 6.23671ZM0.521134 3.96171H13.8245C13.9137 3.96163 14.002 3.94218 14.0837 3.90462C14.1655 3.86707 14.239 3.81217 14.2997 3.74338L17.106 0.576737C17.1501 0.527824 17.1794 0.466289 17.1903 0.399875C17.2012 0.33346 17.1933 0.265132 17.1673 0.203489C17.1415 0.141846 17.0988 0.0896423 17.0448 0.053447C16.9907 0.0172515 16.9277 -0.00131881 16.8637 7.28668e-05H3.56033C3.47113 0.000171673 3.3829 0.0196091 3.30117 0.0571733C3.21941 0.0947373 3.14591 0.149622 3.08521 0.218405L0.28199 3.38505C0.238868 3.43403 0.210256 3.4952 0.199655 3.56103C0.189053 3.62687 0.196924 3.69452 0.222304 3.75572C0.247683 3.81692 0.289468 3.869 0.342544 3.90558C0.395622 3.94218 0.457685 3.96168 0.521134 3.96171Z" fill="url(#paint0_linear_277_8719)"/>
<defs>
<linearGradient id="paint0_linear_277_8719" x1="1.62975" y1="16.3817" x2="16.3803" y2="0.579461" gradientUnits="userSpaceOnUse">
<stop offset="0.08" stop-color="#9945FF"/>
<stop offset="0.3" stop-color="#8752F3"/>
<stop offset="0.5" stop-color="#5497D5"/>
<stop offset="0.6" stop-color="#43B4CA"/>
<stop offset="0.72" stop-color="#28E0B9"/>
<stop offset="0.97" stop-color="#19FB9B"/>
</linearGradient>
</defs>
</svg>
