<svg width="22" height="22" viewBox="0 0 22 22" fill="none" xmlns="http://www.w3.org/2000/svg">
<path d="M17.7183 1.65799C17.3777 1.31738 16.9734 1.04718 16.5284 0.86284C16.0834 0.678498 15.6065 0.583618 15.1248 0.583618C14.6431 0.583618 14.1662 0.678498 13.7212 0.86284C13.2762 1.04718 12.8719 1.31738 12.5313 1.65799L2.59379 11.5955C2.51198 11.6778 2.45036 11.7779 2.41379 11.888L0.538792 17.513C0.496437 17.6404 0.489053 17.7768 0.517411 17.908C0.545769 18.0393 0.608829 18.1605 0.70001 18.259C0.79119 18.3575 0.907148 18.4298 1.03578 18.4682C1.16441 18.5067 1.301 18.5099 1.43129 18.4775L7.43129 16.9775C7.56347 16.9449 7.68428 16.877 7.78079 16.781L16.2498 8.31049L16.3788 8.43949C16.66 8.72078 16.818 9.10224 16.818 9.49999C16.818 9.89774 16.66 10.2792 16.3788 10.5605L14.2188 12.7205C14.0782 12.8613 13.9992 13.0522 13.9994 13.2513C13.9995 13.4503 14.0787 13.6411 14.2195 13.7817C14.3604 13.9224 14.5513 14.0013 14.7503 14.0012C14.9493 14.001 15.1402 13.9218 15.2808 13.781L17.4393 11.621C18.0017 11.0584 18.3176 10.2955 18.3176 9.49999C18.3176 8.7045 18.0017 7.94157 17.4393 7.37899L17.3103 7.24999L17.7183 6.84349C18.4057 6.15575 18.7919 5.22315 18.7919 4.25074C18.7919 3.27834 18.4057 2.34573 17.7183 1.65799ZM6.45029 21.5C4.59779 21.5 3.13829 20.651 2.16779 19.8395L4.09379 19.3595C4.8105 19.7723 5.62172 19.993 6.44879 20C7.05779 20 7.68479 19.754 8.35379 19.3145C9.02429 18.875 9.67079 18.284 10.3248 17.672L10.4943 17.5115C11.0718 16.97 11.6703 16.406 12.2433 16.0175C12.8553 15.6005 13.6683 15.2225 14.5188 15.551C15.0828 15.767 15.4488 16.166 15.7053 16.655C15.9468 17.114 16.1133 17.687 16.2753 18.3125C16.3503 18.5975 16.4748 18.8735 16.6203 19.0595C16.6671 19.125 16.7249 19.1819 16.7913 19.2275C16.8288 19.25 16.8453 19.25 16.8498 19.25C17.0328 19.25 17.3463 19.127 17.7948 18.821C18.0723 18.632 18.3108 18.443 18.5478 18.2525C18.6948 18.1355 18.8433 18.017 19.0008 17.9C19.4193 17.5865 19.7808 17.3765 20.0463 17.243C20.1821 17.1741 20.3213 17.112 20.4633 17.057L20.4933 17.045L20.5038 17.042L20.5083 17.0405H20.5098L20.7498 17.75L20.5113 17.039C20.6989 16.9779 20.9031 16.9933 21.0795 17.0817C21.2559 17.1702 21.3903 17.3245 21.4536 17.5114C21.517 17.6983 21.5041 17.9026 21.4179 18.0801C21.3316 18.2575 21.1789 18.3939 20.9928 18.4595L20.9868 18.4625C20.8975 18.4985 20.8099 18.5386 20.7243 18.5825C20.5293 18.6785 20.2428 18.8435 19.8993 19.1015C19.8108 19.166 19.6968 19.2575 19.5648 19.3625C19.2933 19.577 18.9513 19.8485 18.6378 20.0615C18.1728 20.3795 17.5263 20.7515 16.8498 20.7515C16.1958 20.7515 15.7233 20.354 15.4308 19.976C15.1459 19.591 14.9394 19.1537 14.8233 18.689C14.6583 18.0545 14.5293 17.639 14.3793 17.354C14.2443 17.102 14.1243 17.006 13.9803 16.949C13.8573 16.904 13.6128 16.8995 13.0878 17.258C12.6183 17.576 12.1053 18.0575 11.5008 18.626L11.3508 18.7655C10.7043 19.373 9.97079 20.048 9.17729 20.5685C8.38229 21.0905 7.46729 21.5 6.45029 21.5Z" fill="black"/>
</svg>
