<svg width="107" height="106" viewBox="0 0 107 106" fill="none" xmlns="http://www.w3.org/2000/svg">
<path opacity="0.4" d="M16.191 50.819C16.191 51.3946 16.2039 51.9702 16.2426 52.5075C10.7039 56.6902 6.44035 65.6567 6.44035 73.5489C6.44035 82.1445 11.5025 86.1993 17.7496 82.6178C17.7625 82.605 17.7754 82.605 17.7882 82.5922L57.0357 60.1182C57.0486 60.1054 57.0615 60.1054 57.0873 60.0926C64.0944 56.0634 69.7876 44.9735 69.7876 35.3162C69.7876 26.2729 64.7899 21.6809 58.3882 24.4565C57.6025 18.2528 53.4163 15.5795 48.367 18.4831C45.9455 19.8773 43.7171 22.3204 41.9782 25.2624C39.4536 21.5274 35.1514 20.5936 30.2825 23.3821C22.5026 27.8334 16.191 40.1257 16.191 50.819Z" fill="url(#paint0_linear_219_184)"/>
<path opacity="0.07" d="M9.75069 44.6794C9.75069 45.255 9.76358 45.8306 9.80222 46.3678C4.27639 50.5633 0 59.5299 0 67.422C0 76.0176 5.06212 80.0724 11.3093 76.4909C11.3221 76.4781 11.335 76.4781 11.3479 76.4653L50.5954 53.9785C50.6083 53.9658 50.6212 53.9657 50.6469 53.953C57.654 49.9238 63.3473 38.8338 63.3473 29.1765C63.3473 20.1332 58.3496 15.5412 51.9479 18.3169C51.1622 12.1132 46.9759 9.43983 41.9267 12.3434C39.5051 13.7377 37.2768 16.1808 35.5379 19.1227C33.0132 15.3877 28.7111 14.454 23.8422 17.2424C16.0622 21.6937 9.75069 33.986 9.75069 44.6794Z" fill="url(#paint1_linear_219_184)"/>
<path opacity="0.2" d="M78.3275 61.7683L84.3042 58.3402V56.332L78.3275 59.7601C77.8381 60.0415 77.1296 60.6043 76.5242 61.4741C75.8673 62.4078 75.4036 63.5846 75.4036 64.8637C75.4036 66.2708 75.7643 67.0766 76.4598 67.3068C77.1039 67.5243 77.8638 67.1533 78.3275 66.8847L80.7878 65.4777L80.8006 65.4649C81.0067 65.337 81.3416 65.2219 81.6121 65.2986C81.8311 65.3626 82.0758 65.58 82.0758 66.3603C82.0758 67.1405 81.8311 67.6266 81.625 67.908C81.3674 68.2662 81.0325 68.522 80.8264 68.6243L80.8006 68.6371L73.2912 72.9477V74.9559L80.762 70.6709C81.2772 70.4023 82.0114 69.8395 82.6555 68.9441C83.351 67.972 83.8405 66.7312 83.8405 65.3498C83.8405 63.9811 83.3639 63.2776 82.6812 63.0858C82.0372 62.9067 81.303 63.1625 80.7878 63.4823L78.3275 64.8893C77.9798 65.094 77.7093 65.1835 77.5418 65.1195C77.413 65.0812 77.1554 64.8893 77.1554 63.866C77.1554 63.2137 77.3744 62.7788 77.5676 62.4846C77.8123 62.1392 78.1343 61.8834 78.3275 61.7683Z" fill="white"/>
<path d="M83.0161 57.8416C83.0161 59.4916 83.995 60.2719 85.193 59.594C86.3909 58.9032 87.3698 57.0102 87.3698 55.3473C87.3698 53.6973 86.3909 52.917 85.193 53.5949C83.995 54.2857 83.0161 56.1915 83.0161 57.8416Z" fill="#F2994A"/>
<path d="M70.2642 75.6211C70.2642 77.2712 71.2432 78.0514 72.4411 77.3735C73.639 76.6828 74.6179 74.7897 74.6179 73.1269C74.6179 71.4768 73.639 70.6965 72.4411 71.3745C71.2432 72.0652 70.2642 73.9711 70.2642 75.6211Z" fill="#F2994A"/>
<path opacity="0.07" d="M59.9725 33.1289L21.3562 55.2576V75.5571L59.9854 53.4156L59.9725 33.1289Z" fill="url(#paint2_linear_219_184)"/>
<path opacity="0.3" d="M65.1248 35.6873L26.5085 57.8159V78.1154L65.1376 55.974L65.1248 35.6873Z" fill="url(#paint3_linear_219_184)"/>
<path d="M61.6728 47.7747C61.6728 49.412 60.6939 51.2923 59.4959 51.983C58.298 52.6737 57.3191 51.9062 57.3191 50.269C57.3191 48.6317 58.298 46.7514 59.4959 46.0607C60.6939 45.37 61.6728 46.1375 61.6728 47.7747Z" fill="#F2994A"/>
<path opacity="0.15" d="M56.2242 50.9341C56.2242 51.6888 55.7734 52.5714 55.2067 52.8911C54.6528 53.2109 54.202 52.8528 54.202 52.0981C54.202 51.3434 54.6528 50.4608 55.2195 50.141C55.7734 49.8213 56.2242 50.1794 56.2242 50.9341Z" fill="white"/>
<path opacity="0.15" d="M53.12 52.7122C53.12 53.4669 52.6692 54.3494 52.1025 54.6692C51.5486 54.989 51.0978 54.6308 51.0978 53.8762C51.0978 53.1215 51.5486 52.2389 52.1153 51.9191C52.6692 51.5993 53.12 51.9575 53.12 52.7122Z" fill="white"/>
<path opacity="0.15" d="M36.2592 56.1659V67.7163L37.7791 66.8465V55.2961L36.2592 56.1659Z" fill="white"/>
<path opacity="0.15" d="M32.936 58.0844V69.6348L34.4559 68.765V57.2146L32.936 58.0844Z" fill="white"/>
<path opacity="0.15" d="M29.5998 60.0031V71.5535L31.1197 70.6837V59.1333L29.5998 60.0031Z" fill="white"/>
<path opacity="0.07" d="M59.9854 60.8728L21.3562 83.0143V103.314L59.9854 81.1723V60.8728Z" fill="url(#paint4_linear_219_184)"/>
<path opacity="0.3" d="M65.1376 63.5591L26.5085 85.7005V106L65.1376 83.8586V63.5591Z" fill="url(#paint5_linear_219_184)"/>
<path d="M61.6728 75.6468C61.6728 77.2841 60.6939 79.1644 59.4959 79.8551C58.298 80.5458 57.3191 79.7783 57.3191 78.1411C57.3191 76.5038 58.298 74.6235 59.4959 73.9328C60.6939 73.2421 61.6728 74.0095 61.6728 75.6468Z" fill="#F2994A"/>
<path opacity="0.15" d="M56.2242 78.819C56.2242 79.5736 55.7734 80.4562 55.2067 80.776C54.6528 81.0958 54.202 80.7376 54.202 79.9829C54.202 79.2283 54.6528 78.3457 55.2195 78.0259C55.7734 77.7061 56.2242 78.0515 56.2242 78.819Z" fill="white"/>
<path opacity="0.15" d="M53.1201 80.5968C53.1201 81.3515 52.6692 82.2341 52.1025 82.5539C51.5486 82.8736 51.0978 82.5155 51.0978 81.7608C51.0978 81.0061 51.5486 80.1236 52.1153 79.8038C52.6692 79.4712 53.1329 79.8294 53.1201 80.5968Z" fill="white"/>
<path opacity="0.15" d="M36.2592 84.4342V95.9846L37.7791 95.1148V83.5645L36.2592 84.4342Z" fill="white"/>
<path opacity="0.15" d="M32.936 86.3529V97.9033L34.4559 97.0335V85.4832L32.936 86.3529Z" fill="white"/>
<path opacity="0.15" d="M29.5998 88.2717V99.822L31.1197 98.9522V87.4019L29.5998 88.2717Z" fill="white"/>
<path opacity="0.3" d="M99.4261 5.61523L75.3649 19.4041V63.6997L99.439 49.8981L99.4261 5.61523Z" fill="url(#paint6_linear_219_184)"/>
<path d="M84.5746 21.6553C84.5746 23.8682 85.8627 24.917 87.447 23.9961C89.0313 23.0751 90.3194 20.5425 90.3194 18.3296C90.3194 16.1167 89.0313 15.0679 87.447 15.9888C85.8627 16.9098 84.5746 19.4424 84.5746 21.6553Z" fill="#F2C94C"/>
<path d="M87.4471 25.774C90.0103 24.2903 92.1228 25.6845 92.4963 28.8823C92.5607 29.4323 92.1357 30.1742 91.6204 30.4684L83.2609 35.3162C82.7456 35.6104 82.3206 35.3801 82.385 34.7406C82.7714 31.0951 84.8967 27.2578 87.4471 25.774Z" fill="#F2C94C"/>
<path opacity="0.15" d="M94.6087 34.3442L80.2596 42.5689V44.3085L94.6087 36.0838V34.3442Z" fill="white"/>
<path opacity="0.15" d="M93.1531 38.6292L81.7795 45.1398V46.8794L93.1531 40.3687V38.6292Z" fill="white"/>
<path d="M90.2551 45.9457L107 36.3396V41.2898L90.2551 50.8959V45.9457Z" fill="#F2C94C"/>
<path opacity="0.2" d="M70.174 0L66.5931 6.98395C66.1037 7.94329 66.181 8.90262 66.7735 9.13286C67.366 9.3631 68.2419 8.76192 68.7313 7.80259L68.77 7.71305V15.4645C68.77 16.3471 69.3883 16.7052 70.1611 16.2703C70.9339 15.8226 71.5522 14.761 71.5522 13.8784V6.12695L71.5909 6.16532C72.0803 6.56185 72.9691 6.15253 73.5487 5.24436C74.1412 4.33619 74.2185 3.28732 73.7291 2.89079L70.174 0Z" fill="url(#paint7_linear_219_184)"/>
<path opacity="0.2" d="M70.174 103.122L73.7548 96.1382C74.2443 95.1788 74.167 94.2195 73.5745 93.9893C72.982 93.759 72.1061 94.3602 71.6166 95.3196L71.578 95.4091V87.6577C71.578 86.7751 70.9597 86.4169 70.1869 86.8518C69.414 87.2995 68.7957 88.3612 68.7957 89.2438V96.9952L68.7571 96.9568C68.2676 96.5603 67.3789 96.9696 66.7992 97.8778C66.2067 98.7859 66.1295 99.8348 66.6189 100.231L70.174 103.122Z" fill="url(#paint8_linear_219_184)"/>
<defs>
<linearGradient id="paint0_linear_219_184" x1="8.7445" y1="26.3924" x2="48.3374" y2="64.2102" gradientUnits="userSpaceOnUse">
<stop stop-color="white"/>
<stop offset="1" stop-color="white" stop-opacity="0"/>
</linearGradient>
<linearGradient id="paint1_linear_219_184" x1="2.30275" y1="20.2527" x2="41.8956" y2="58.0705" gradientUnits="userSpaceOnUse">
<stop stop-color="white"/>
<stop offset="1" stop-color="white" stop-opacity="0"/>
</linearGradient>
<linearGradient id="paint2_linear_219_184" x1="41.4525" y1="34.7523" x2="40.0331" y2="70.6601" gradientUnits="userSpaceOnUse">
<stop stop-color="white"/>
<stop offset="1" stop-color="white" stop-opacity="0"/>
</linearGradient>
<linearGradient id="paint3_linear_219_184" x1="46.605" y1="37.3106" x2="45.1856" y2="73.2184" gradientUnits="userSpaceOnUse">
<stop stop-color="white"/>
<stop offset="1" stop-color="white" stop-opacity="0"/>
</linearGradient>
<linearGradient id="paint4_linear_219_184" x1="41.4553" y1="62.5004" x2="40.0359" y2="98.4082" gradientUnits="userSpaceOnUse">
<stop stop-color="white"/>
<stop offset="1" stop-color="white" stop-opacity="0"/>
</linearGradient>
<linearGradient id="paint5_linear_219_184" x1="46.6078" y1="65.1865" x2="45.1885" y2="101.094" gradientUnits="userSpaceOnUse">
<stop stop-color="white"/>
<stop offset="1" stop-color="white" stop-opacity="0"/>
</linearGradient>
<linearGradient id="paint6_linear_219_184" x1="72.7835" y1="9.50817" x2="93.9309" y2="46.4028" gradientUnits="userSpaceOnUse">
<stop stop-color="white"/>
<stop offset="1" stop-color="white" stop-opacity="0"/>
</linearGradient>
<linearGradient id="paint7_linear_219_184" x1="67.6243" y1="7.04478" x2="74.1357" y2="10.7" gradientUnits="userSpaceOnUse">
<stop stop-color="white"/>
<stop offset="1" stop-color="white" stop-opacity="0"/>
</linearGradient>
<linearGradient id="paint8_linear_219_184" x1="72.7275" y1="96.0821" x2="66.2161" y2="92.4269" gradientUnits="userSpaceOnUse">
<stop stop-color="white"/>
<stop offset="1" stop-color="white" stop-opacity="0"/>
</linearGradient>
</defs>
</svg>
