<svg width="144" height="136" viewBox="0 0 144 136" fill="none" xmlns="http://www.w3.org/2000/svg">
<path opacity="0.2" d="M64.0815 35.8489L28.9337 15.9038L28.7706 34.18L63.9184 54.1252L64.0815 35.8489Z" fill="url(#paint0_linear_219_129)"/>
<path opacity="0.15" d="M37.8879 25.4099L48.4567 31.4147L48.4404 33.6072L37.8716 27.6024L37.8879 25.4099Z" fill="white"/>
<path opacity="0.15" d="M37.8552 29.8113L60.3629 42.5899L60.3466 44.8151L37.8389 32.0365L37.8552 29.8113Z" fill="white"/>
<path d="M36.0123 26.0809C35.996 27.5862 35.0989 28.3061 33.9898 27.668C32.8808 27.0462 32 25.3119 32.0163 23.8066C32.0326 22.3013 32.9297 21.5814 34.0388 22.2195C35.1478 22.8412 36.0286 24.5756 36.0123 26.0809Z" fill="#F2C94C"/>
<path opacity="0.2" d="M144 117.724L108.868 97.7786L108.705 116.055L143.853 136L144 117.724Z" fill="url(#paint1_linear_219_129)"/>
<path opacity="0.15" d="M117.823 107.285L128.391 113.29L128.375 115.482L117.806 109.477L117.823 107.285Z" fill="white"/>
<path opacity="0.15" d="M117.79 111.686L140.298 124.465L140.281 126.69L117.774 113.911L117.79 111.686Z" fill="white"/>
<path d="M115.947 107.956C115.931 109.461 115.034 110.181 113.925 109.543C112.815 108.921 111.935 107.187 111.951 105.681C111.967 104.176 112.864 103.456 113.973 104.094C115.083 104.716 115.963 106.45 115.947 107.956Z" fill="#F2C94C"/>
<path opacity="0.1" d="M103.013 0.719923C96.3914 2.01251 81.5005 3.68142 75.0092 0C75.0581 26.0481 81.4189 63.0096 102.214 93.4918C123.335 86.7998 130.267 57.3975 130.756 31.6603C124.265 27.9625 109.554 9.48989 103.013 0.719923Z" fill="url(#paint2_linear_219_129)"/>
<path opacity="0.3" d="M94.9235 6.11934C88.3017 7.41193 73.4108 9.08084 66.9194 5.39941C66.9684 31.4475 73.3292 68.409 94.1243 98.8912C115.246 92.1992 122.177 62.7806 122.667 37.0597C116.175 33.3619 101.464 14.8893 94.9235 6.11934Z" fill="url(#paint3_linear_219_129)"/>
<path opacity="0.4" d="M122.683 37.0434C116.175 33.3456 101.48 14.8894 94.9399 6.11938L94.1407 98.8749C115.246 92.1993 122.177 62.7806 122.683 37.0434Z" fill="url(#paint4_linear_219_129)"/>
<path opacity="0.1" d="M59.6127 55.3359L92.3466 73.4158L92.3629 133.742L59.629 115.679L59.6127 55.3359Z" fill="url(#paint5_linear_219_129)"/>
<path opacity="0.2" d="M63.8532 90.5957L88.5301 104.225L88.5953 125.856L63.9184 112.226L63.8532 90.5957Z" fill="url(#paint6_linear_219_129)"/>
<path opacity="0.15" d="M64.2936 76.1973L75.7105 82.4966V84.7218L64.2936 78.4225V76.1973Z" fill="white"/>
<path opacity="0.15" d="M64.3425 80.615L75.7595 86.9143V89.1396L64.3425 82.8402V80.615Z" fill="white"/>
<path opacity="0.15" d="M64.3262 84.8691L85.9857 96.8297V99.0549L64.3262 87.0944V84.8691Z" fill="white"/>
<path opacity="0.2" d="M59.6127 55.3359L92.3466 73.4158L92.3792 83.8383L59.629 65.7748L59.6127 55.3359Z" fill="url(#paint7_linear_219_129)"/>
<path opacity="0.2" d="M67.8003 65.1366C67.8003 66.7074 66.8706 67.4764 65.7289 66.8383C64.5872 66.2002 63.6412 64.4167 63.6412 62.8296C63.6412 61.2589 64.5709 60.4899 65.7126 61.128C66.8706 61.7661 67.8003 63.5659 67.8003 65.1366Z" fill="white"/>
<path d="M79.054 90.3994L79.0214 81.4331L101.219 93.6882L101.252 102.654L79.054 90.3994Z" fill="#F2C94C"/>
<path opacity="0.3" d="M53.7085 52.5379L5.17026 24.4446L5.18657 49.8219L49.4353 75.4446L53.7248 81.8093L53.7085 52.5379Z" fill="url(#paint8_linear_219_129)"/>
<path d="M0 34.3273V27.439L18.316 38.0415V44.9298L0 34.3273Z" fill="#F2994A"/>
<path opacity="0.15" d="M41.2314 51.4909L30.5974 45.3389V47.5641L41.2314 53.7162V51.4909Z" fill="white"/>
<path opacity="0.15" d="M41.2314 55.9576L20.7299 44.0952V46.3204L41.2314 58.1828V55.9576Z" fill="white"/>
<path opacity="0.15" d="M41.2314 60.408L16.3914 46.0259V48.2511L41.2314 62.6332V60.408Z" fill="white"/>
<path d="M43.8409 55.3358C43.8409 57.4301 45.0805 59.8353 46.5973 60.7188C48.1141 61.6024 49.3537 60.6207 49.3537 58.5263C49.3537 56.432 48.1141 54.0268 46.5973 53.1433C45.0805 52.2597 43.8409 53.2415 43.8409 55.3358Z" fill="#F2994A"/>
<path opacity="0.2" d="M38.0836 78.6843C39.0622 79.2406 39.8451 80.615 39.8451 81.744V86.7344L43.1397 88.6324C44.1183 89.1887 44.9012 90.5631 44.9012 91.6921C44.9012 92.821 44.1183 93.2792 43.1397 92.7229L39.8451 90.8249V95.8153C39.8451 96.9442 39.0622 97.4024 38.0836 96.8461C37.105 96.2898 36.3222 94.9153 36.3222 93.7864V88.796L33.0276 86.8816C32.049 86.3253 31.2661 84.9509 31.2661 83.822C31.2661 82.693 32.049 82.2349 33.0276 82.7912L36.3222 84.6892V79.6988C36.3222 78.5862 37.105 78.128 38.0836 78.6843Z" fill="url(#paint9_linear_219_129)"/>
<defs>
<linearGradient id="paint0_linear_219_129" x1="50.3473" y1="28.055" x2="42.4629" y2="41.9442" gradientUnits="userSpaceOnUse">
<stop stop-color="white"/>
<stop offset="1" stop-color="white" stop-opacity="0"/>
</linearGradient>
<linearGradient id="paint1_linear_219_129" x1="130.279" y1="109.931" x2="122.394" y2="123.82" gradientUnits="userSpaceOnUse">
<stop stop-color="white"/>
<stop offset="1" stop-color="white" stop-opacity="0"/>
</linearGradient>
<linearGradient id="paint2_linear_219_129" x1="60.3229" y1="9.13296" x2="105.884" y2="49.7808" gradientUnits="userSpaceOnUse">
<stop stop-color="white"/>
<stop offset="1" stop-color="white" stop-opacity="0"/>
</linearGradient>
<linearGradient id="paint3_linear_219_129" x1="52.2346" y1="14.528" x2="97.7962" y2="55.1758" gradientUnits="userSpaceOnUse">
<stop stop-color="white"/>
<stop offset="1" stop-color="white" stop-opacity="0"/>
</linearGradient>
<linearGradient id="paint4_linear_219_129" x1="125.039" y1="46.6411" x2="88.5847" y2="53.5959" gradientUnits="userSpaceOnUse">
<stop stop-color="white"/>
<stop offset="1" stop-color="white" stop-opacity="0"/>
</linearGradient>
<linearGradient id="paint5_linear_219_129" x1="59.8073" y1="78.7964" x2="94.2401" y2="112.106" gradientUnits="userSpaceOnUse">
<stop stop-color="white"/>
<stop offset="1" stop-color="white" stop-opacity="0"/>
</linearGradient>
<linearGradient id="paint6_linear_219_129" x1="68.2048" y1="91.0723" x2="82.9849" y2="122.49" gradientUnits="userSpaceOnUse">
<stop stop-color="white"/>
<stop offset="1" stop-color="white" stop-opacity="0"/>
</linearGradient>
<linearGradient id="paint7_linear_219_129" x1="70.7165" y1="55.3059" x2="81.0161" y2="83.0373" gradientUnits="userSpaceOnUse">
<stop stop-color="white"/>
<stop offset="1" stop-color="white" stop-opacity="0"/>
</linearGradient>
<linearGradient id="paint8_linear_219_129" x1="43.1175" y1="42.3762" x2="17.9967" y2="61.9826" gradientUnits="userSpaceOnUse">
<stop stop-color="white"/>
<stop offset="1" stop-color="white" stop-opacity="0"/>
</linearGradient>
<linearGradient id="paint9_linear_219_129" x1="41.4911" y1="85.0696" x2="32.9307" y2="91.8039" gradientUnits="userSpaceOnUse">
<stop stop-color="white"/>
<stop offset="1" stop-color="white" stop-opacity="0"/>
</linearGradient>
</defs>
</svg>
