<svg width="81" height="127" viewBox="0 0 81 127" fill="none" xmlns="http://www.w3.org/2000/svg">
<path opacity="0.2" d="M25.5629 77.2006C25.5629 83.7386 29.3701 86.8342 34.0529 84.1122C38.749 81.3903 42.5429 73.8783 42.5429 67.3403C42.5429 60.8023 38.7357 57.7067 34.0529 60.4287C29.3569 63.1506 25.5496 70.6626 25.5629 77.2006Z" fill="url(#paint0_linear_219_214)"/>
<path opacity="0.3" d="M49.6666 0.212436C48.8308 0.692779 48.1676 1.86695 48.1676 2.82764V28.606L40.5663 33.0225V59.6148C40.5663 60.5755 41.2429 60.9625 42.0654 60.4821C42.9011 60.0018 43.5644 58.8276 43.5644 57.8669V34.7571L51.1656 30.3406V1.06638C51.1788 0.119036 50.5023 -0.281249 49.6666 0.212436Z" fill="url(#paint1_linear_219_214)"/>
<path opacity="0.3" d="M45.5277 112.186C44.692 112.666 44.0287 112.279 44.0287 111.319V91.9981L36.4142 96.4146V83.7655C36.4142 82.8049 37.0907 81.6307 37.9132 81.1503C38.7489 80.67 39.4122 81.0569 39.4122 82.0176V91.1842L47.0134 86.7677V109.571C47.0267 110.531 46.3502 111.705 45.5277 112.186Z" fill="url(#paint2_linear_219_214)"/>
<path opacity="0.3" d="M33.8406 19.1193C33.0049 19.5997 32.3416 20.7738 32.3416 21.7345V65.5925C32.3416 66.5532 33.0182 66.9402 33.8406 66.4598C34.6764 65.9795 35.3396 64.8053 35.3396 63.8446V19.9866C35.3396 19.0259 34.6631 18.639 33.8406 19.1193Z" fill="url(#paint3_linear_219_214)"/>
<path d="M42.3572 109.971C42.3572 112.613 43.896 113.867 45.793 112.759C47.69 111.665 49.2288 108.623 49.2288 105.981C49.2288 103.339 47.69 102.085 45.793 103.193C43.896 104.3 42.3572 107.329 42.3572 109.971Z" fill="#F2C94C"/>
<path opacity="0.3" d="M17.1127 41.1215C17.9485 40.6412 18.6117 41.0281 18.6117 41.9888V55.0115L26.213 50.595V66.5931C26.213 67.5537 25.5364 68.7279 24.7139 69.2083C23.8782 69.6886 23.2149 69.3017 23.2149 68.341V55.8254L15.6137 60.2419V43.7367C15.6137 42.776 16.277 41.6019 17.1127 41.1215Z" fill="url(#paint4_linear_219_214)"/>
<path d="M13.7432 45.7115C13.7432 48.3267 15.2688 49.5542 17.1392 48.4735C19.0097 47.3793 20.5352 44.3905 20.5352 41.7753C20.5352 39.1601 19.0097 37.9326 17.1392 39.0133C15.2688 40.0941 13.7432 43.1096 13.7432 45.7115Z" fill="#F2994A"/>
<path opacity="0.3" d="M2.56024 112.319C2.56024 111.358 3.23679 110.184 4.05926 109.704L15.8657 102.846V92.9051L27.5925 86.1003C28.4282 85.6199 29.0915 86.0069 29.0915 86.9676C29.0915 87.9283 28.415 89.1024 27.5925 89.5828L18.8637 94.6531V104.593L4.07253 113.2C3.23679 113.68 2.56024 113.28 2.56024 112.319Z" fill="url(#paint5_linear_219_214)"/>
<path opacity="0.3" d="M31.0681 126.796C31.9038 126.316 32.5671 125.142 32.5671 124.181V92.5584C32.5671 91.5977 31.8906 91.2108 31.0681 91.6911C30.2324 92.1715 29.5691 93.3456 29.5691 94.3063V125.929C29.5691 126.876 30.2456 127.277 31.0681 126.796Z" fill="url(#paint6_linear_219_214)"/>
<path d="M0.742859 113.467C0.742859 116.108 2.28167 117.363 4.17866 116.255C6.07565 115.161 7.61446 112.119 7.61446 109.477C7.61446 106.835 6.07565 105.581 4.17866 106.688C2.28167 107.796 0.742859 110.825 0.742859 113.467Z" fill="#F2994A"/>
<path opacity="0.3" d="M74.2213 60.4019L52.6248 72.9441V113.186L74.2213 100.644V60.4019Z" fill="url(#paint7_linear_219_214)"/>
<path opacity="0.15" d="M70.7988 85.9802L57.9311 93.4522V95.04L70.7988 87.568V85.9802Z" fill="white"/>
<path opacity="0.15" d="M69.459 89.9031L59.2577 95.8273V97.4151L69.459 91.4909V89.9031Z" fill="white"/>
<path d="M65.97 97.0548L81 88.3286V92.8252L65.97 101.551V97.0548Z" fill="#F2C94C"/>
<path opacity="0.2" d="M58.7402 76.9606L62.0964 79.6292L64.3516 76.7204L67.2966 79.2823L68.464 78.4283L64.1261 74.759L61.924 77.6678L59.4964 75.8532L58.7402 76.9606Z" fill="white"/>
<path d="M56.2198 76.8937C56.2198 78.4014 57.0953 79.1086 58.1698 78.4815C59.2443 77.8544 60.1199 76.1332 60.1199 74.6254C60.1199 73.1177 59.2443 72.4105 58.1698 73.0376C57.0953 73.6647 56.2198 75.386 56.2198 76.8937Z" fill="#F2C94C"/>
<path d="M66.2751 79.8026C66.2751 81.3104 67.1507 82.0175 68.2252 81.3904C69.2997 80.7633 70.1753 79.0421 70.1753 77.5343C70.1753 76.0266 69.2997 75.3194 68.2252 75.9465C67.1507 76.5737 66.2751 78.2949 66.2751 79.8026Z" fill="#F2C94C"/>
<path opacity="0.2" d="M0 86.7142L20.5352 74.7856V85.54L0 97.4685V86.7142Z" fill="url(#paint8_linear_219_214)"/>
<path opacity="0.15" d="M15.282 80.4297L9.10022 84.0189V85.3132L15.282 81.7239V80.4297Z" fill="white"/>
<path opacity="0.15" d="M15.2688 83.0315L2.10925 90.6636V91.9712L15.2688 84.3391V83.0315Z" fill="white"/>
<path d="M16.3565 80.8166C16.3565 81.6972 16.8739 82.1242 17.5239 81.7506C18.1739 81.377 18.6913 80.3496 18.6913 79.469C18.6913 78.5883 18.1739 78.1614 17.5239 78.535C16.8739 78.9086 16.3565 79.936 16.3565 80.8166Z" fill="#F2994A"/>
<path opacity="0.2" d="M52.6912 53.824L73.2264 41.8955V52.6499L52.6912 64.5784V53.824Z" fill="url(#paint9_linear_219_214)"/>
<path opacity="0.15" d="M67.9731 47.5396L61.7913 51.1288V52.423L67.9731 48.8338V47.5396Z" fill="white"/>
<path opacity="0.15" d="M67.9599 50.1414L54.8004 57.7735V59.0811L67.9599 51.449V50.1414Z" fill="white"/>
<path d="M69.0477 47.9264C69.0477 48.8071 69.565 49.234 70.215 48.8604C70.8651 48.4868 71.3824 47.4594 71.3824 46.5788C71.3824 45.6982 70.8651 45.2712 70.215 45.6448C69.5783 46.0184 69.0477 47.0325 69.0477 47.9264Z" fill="#F2994A"/>
<defs>
<linearGradient id="paint0_linear_219_214" x1="32.3469" y1="62.4955" x2="36.2301" y2="84.4809" gradientUnits="userSpaceOnUse">
<stop stop-color="white"/>
<stop offset="1" stop-color="white" stop-opacity="0"/>
</linearGradient>
<linearGradient id="paint1_linear_219_214" x1="34.5997" y1="10.7006" x2="56.5572" y2="48.5219" gradientUnits="userSpaceOnUse">
<stop stop-color="white"/>
<stop offset="1" stop-color="white" stop-opacity="0"/>
</linearGradient>
<linearGradient id="paint2_linear_219_214" x1="50.3425" y1="107.641" x2="36.4624" y2="83.7334" gradientUnits="userSpaceOnUse">
<stop stop-color="white"/>
<stop offset="1" stop-color="white" stop-opacity="0"/>
</linearGradient>
<linearGradient id="paint3_linear_219_214" x1="24.4018" y1="26.3454" x2="43.4472" y2="59.1509" gradientUnits="userSpaceOnUse">
<stop stop-color="white"/>
<stop offset="1" stop-color="white" stop-opacity="0"/>
</linearGradient>
<linearGradient id="paint4_linear_219_214" x1="9.06418" y1="34.7694" x2="27.2069" y2="66.0197" gradientUnits="userSpaceOnUse">
<stop stop-color="white"/>
<stop offset="1" stop-color="white" stop-opacity="0"/>
</linearGradient>
<linearGradient id="paint5_linear_219_214" x1="-2.37577" y1="99.6504" x2="27.6062" y2="99.6471" gradientUnits="userSpaceOnUse">
<stop stop-color="white"/>
<stop offset="1" stop-color="white" stop-opacity="0"/>
</linearGradient>
<linearGradient id="paint6_linear_219_214" x1="37.8818" y1="121.088" x2="24.1269" y2="97.4285" gradientUnits="userSpaceOnUse">
<stop stop-color="white"/>
<stop offset="1" stop-color="white" stop-opacity="0"/>
</linearGradient>
<linearGradient id="paint7_linear_219_214" x1="50.3162" y1="63.939" x2="69.6563" y2="97.2516" gradientUnits="userSpaceOnUse">
<stop stop-color="white"/>
<stop offset="1" stop-color="white" stop-opacity="0"/>
</linearGradient>
<linearGradient id="paint8_linear_219_214" x1="7.94637" y1="82.095" x2="12.6189" y2="90.1433" gradientUnits="userSpaceOnUse">
<stop stop-color="white"/>
<stop offset="1" stop-color="white" stop-opacity="0"/>
</linearGradient>
<linearGradient id="paint9_linear_219_214" x1="60.642" y1="49.2011" x2="65.3146" y2="57.2494" gradientUnits="userSpaceOnUse">
<stop stop-color="white"/>
<stop offset="1" stop-color="white" stop-opacity="0"/>
</linearGradient>
</defs>
</svg>
