<svg width="130" height="49" viewBox="0 0 130 49" fill="none" xmlns="http://www.w3.org/2000/svg">
<path d="M14.6935 36.72C12.1335 36.72 9.8215 36.272 7.7575 35.376C5.7095 34.464 4.0215 33.168 2.6935 31.488C1.3815 29.792 0.549496 27.776 0.197496 25.44L7.0135 24.432C7.4935 26.416 8.4855 27.944 9.9895 29.016C11.4935 30.088 13.2055 30.624 15.1255 30.624C16.1975 30.624 17.2375 30.456 18.2455 30.12C19.2535 29.784 20.0775 29.288 20.7175 28.632C21.3735 27.976 21.7015 27.168 21.7015 26.208C21.7015 25.856 21.6455 25.52 21.5335 25.2C21.4375 24.864 21.2695 24.552 21.0295 24.264C20.7895 23.976 20.4455 23.704 19.9975 23.448C19.5655 23.192 19.0135 22.96 18.3415 22.752L9.3655 20.112C8.6935 19.92 7.9095 19.648 7.0135 19.296C6.1335 18.944 5.2775 18.44 4.4455 17.784C3.6135 17.128 2.9175 16.264 2.3575 15.192C1.8135 14.104 1.5415 12.736 1.5415 11.088C1.5415 8.768 2.1255 6.84 3.2935 5.304C4.4615 3.768 6.0215 2.624 7.9735 1.872C9.9255 1.12 12.0855 0.751998 14.4535 0.767999C16.8375 0.799998 18.9655 1.208 20.8375 1.992C22.7095 2.776 24.2775 3.92 25.5415 5.424C26.8055 6.912 27.7175 8.736 28.2775 10.896L21.2215 12.096C20.9655 10.976 20.4935 10.032 19.8055 9.264C19.1175 8.496 18.2935 7.912 17.3335 7.512C16.3895 7.112 15.3975 6.896 14.3575 6.864C13.3335 6.832 12.3655 6.976 11.4535 7.296C10.5575 7.6 9.8215 8.048 9.2455 8.64C8.6855 9.232 8.4055 9.936 8.4055 10.752C8.4055 11.504 8.6375 12.12 9.1015 12.6C9.5655 13.064 10.1495 13.44 10.8535 13.728C11.5575 14.016 12.2775 14.256 13.0135 14.448L19.0135 16.08C19.9095 16.32 20.9015 16.64 21.9895 17.04C23.0775 17.424 24.1175 17.968 25.1095 18.672C26.1175 19.36 26.9415 20.272 27.5815 21.408C28.2375 22.544 28.5655 23.984 28.5655 25.728C28.5655 27.584 28.1735 29.208 27.3895 30.6C26.6215 31.976 25.5815 33.12 24.2695 34.032C22.9575 34.928 21.4695 35.6 19.8055 36.048C18.1575 36.496 16.4535 36.72 14.6935 36.72ZM32.4006 6.48V0.719999H38.9286V6.48H32.4006ZM32.4006 36V10.08H38.9286V36H32.4006ZM55.2918 48.24C53.8198 48.24 52.4198 48 51.0918 47.52C49.7638 47.056 48.5718 46.4 47.5158 45.552C46.4758 44.72 45.6278 43.744 44.9718 42.624L51.0198 39.696C51.4358 40.464 52.0278 41.048 52.7958 41.448C53.5798 41.848 54.4278 42.048 55.3398 42.048C56.3158 42.048 57.2358 41.88 58.0998 41.544C58.9638 41.224 59.6518 40.736 60.1638 40.08C60.6918 39.44 60.9398 38.64 60.9078 37.68V30.144H61.7238V10.08H67.4358V37.776C67.4358 38.416 67.4038 39.016 67.3398 39.576C67.2918 40.152 67.1958 40.72 67.0518 41.28C66.6358 42.864 65.8598 44.168 64.7238 45.192C63.6038 46.216 62.2278 46.976 60.5958 47.472C58.9638 47.984 57.1958 48.24 55.2918 48.24ZM54.7158 36.72C52.3318 36.72 50.2438 36.12 48.4518 34.92C46.6598 33.72 45.2598 32.088 44.2518 30.024C43.2598 27.96 42.7638 25.632 42.7638 23.04C42.7638 20.4 43.2678 18.056 44.2758 16.008C45.2998 13.944 46.7318 12.32 48.5718 11.136C50.4118 9.952 52.5718 9.36 55.0518 9.36C57.5158 9.36 59.5878 9.96 61.2678 11.16C62.9478 12.36 64.2198 13.992 65.0837 16.056C65.9478 18.12 66.3798 20.448 66.3798 23.04C66.3798 25.632 65.9398 27.96 65.0598 30.024C64.1958 32.088 62.8998 33.72 61.1718 34.92C59.4438 36.12 57.2918 36.72 54.7158 36.72ZM55.7718 30.912C57.2278 30.912 58.3878 30.584 59.2518 29.928C60.1318 29.272 60.7638 28.352 61.1478 27.168C61.5318 25.984 61.7238 24.608 61.7238 23.04C61.7238 21.472 61.5318 20.096 61.1478 18.912C60.7638 17.728 60.1478 16.808 59.2998 16.152C58.4678 15.496 57.3718 15.168 56.0118 15.168C54.5558 15.168 53.3558 15.528 52.4118 16.248C51.4838 16.952 50.7958 17.904 50.3478 19.104C49.8998 20.288 49.6758 21.6 49.6758 23.04C49.6758 24.496 49.8918 25.824 50.3238 27.024C50.7558 28.208 51.4198 29.152 52.3158 29.856C53.2118 30.56 54.3638 30.912 55.7718 30.912ZM89.9009 36V23.76C89.9009 23.168 89.8689 22.416 89.8049 21.504C89.7409 20.576 89.5409 19.648 89.2049 18.72C88.8689 17.792 88.3169 17.016 87.5489 16.392C86.7969 15.768 85.7249 15.456 84.3329 15.456C83.7729 15.456 83.1729 15.544 82.5329 15.72C81.8929 15.896 81.2929 16.24 80.7329 16.752C80.1729 17.248 79.7089 17.984 79.3409 18.96C78.9889 19.936 78.8129 21.232 78.8129 22.848L75.0689 21.072C75.0689 19.024 75.4849 17.104 76.3169 15.312C77.1489 13.52 78.3969 12.072 80.0609 10.968C81.7409 9.864 83.8529 9.312 86.3969 9.312C88.4289 9.312 90.0849 9.656 91.3649 10.344C92.6449 11.032 93.6369 11.904 94.3409 12.96C95.0609 14.016 95.5729 15.12 95.8769 16.272C96.1809 17.408 96.3649 18.448 96.4289 19.392C96.4929 20.336 96.5249 21.024 96.5249 21.456V36H89.9009ZM72.1889 36V10.08H77.9969V18.672H78.8129V36H72.1889ZM97.9525 36L109.569 18.528L98.2885 1.44H106.305L113.649 12.96L120.897 1.44H128.961L117.681 18.528L129.249 36H121.233L113.649 24.096L106.017 36H97.9525Z" fill="#ffffff" stroke="none" />
</svg>
