<svg width="124" height="49" viewBox="0 0 124 49" fill="none" xmlns="http://www.w3.org/2000/svg">
<path d="M11.7421 36.72C8.47806 36.72 5.83806 35.984 3.82206 34.512C1.82206 33.024 0.606059 30.928 0.174059 28.224L6.84606 27.216C7.11806 28.432 7.71806 29.384 8.64606 30.072C9.59006 30.76 10.7821 31.104 12.2221 31.104C13.4061 31.104 14.3181 30.88 14.9581 30.432C15.5981 29.968 15.9181 29.328 15.9181 28.512C15.9181 28 15.7901 27.592 15.5341 27.288C15.2781 26.968 14.7021 26.656 13.8061 26.352C12.9261 26.048 11.5501 25.648 9.67806 25.152C7.56606 24.608 5.87806 24 4.61406 23.328C3.35006 22.656 2.43806 21.856 1.87806 20.928C1.31806 19.984 1.03806 18.848 1.03806 17.52C1.03806 15.856 1.46206 14.416 2.31006 13.2C3.15806 11.968 4.35006 11.024 5.88606 10.368C7.43806 9.696 9.26206 9.36 11.3581 9.36C13.3901 9.36 15.1901 9.672 16.7581 10.296C18.3261 10.92 19.5901 11.808 20.5501 12.96C21.5261 14.112 22.1261 15.472 22.3501 17.04L15.6781 18.24C15.5661 17.28 15.1501 16.52 14.4301 15.96C13.7101 15.4 12.7341 15.072 11.5021 14.976C10.3021 14.896 9.33406 15.056 8.59806 15.456C7.87806 15.856 7.51806 16.432 7.51806 17.184C7.51806 17.632 7.67006 18.008 7.97406 18.312C8.29406 18.616 8.94206 18.928 9.91806 19.248C10.9101 19.568 12.4141 19.984 14.4301 20.496C16.3981 21.008 17.9741 21.608 19.1581 22.296C20.3581 22.968 21.2301 23.784 21.7741 24.744C22.3181 25.688 22.5901 26.832 22.5901 28.176C22.5901 30.832 21.6301 32.92 19.7101 34.44C17.7901 35.96 15.1341 36.72 11.7421 36.72ZM26.4241 6.48V0.719999H32.9521V6.48H26.4241ZM26.4241 36V10.08H32.9521V36H26.4241ZM49.3152 48.24C47.8432 48.24 46.4432 48 45.1152 47.52C43.7872 47.056 42.5952 46.4 41.5392 45.552C40.4992 44.72 39.6512 43.744 38.9952 42.624L45.0432 39.696C45.4592 40.464 46.0512 41.048 46.8192 41.448C47.6032 41.848 48.4512 42.048 49.3632 42.048C50.3392 42.048 51.2592 41.88 52.1232 41.544C52.9872 41.224 53.6752 40.736 54.1872 40.08C54.7152 39.44 54.9632 38.64 54.9312 37.68V30.144H55.7472V10.08H61.4592V37.776C61.4592 38.416 61.4272 39.016 61.3632 39.576C61.3152 40.152 61.2192 40.72 61.0752 41.28C60.6592 42.864 59.8832 44.168 58.7472 45.192C57.6272 46.216 56.2512 46.976 54.6192 47.472C52.9872 47.984 51.2192 48.24 49.3152 48.24ZM48.7392 36.72C46.3552 36.72 44.2672 36.12 42.4752 34.92C40.6832 33.72 39.2832 32.088 38.2752 30.024C37.2832 27.96 36.7872 25.632 36.7872 23.04C36.7872 20.4 37.2912 18.056 38.2992 16.008C39.3232 13.944 40.7552 12.32 42.5952 11.136C44.4352 9.952 46.5952 9.36 49.0752 9.36C51.5392 9.36 53.6112 9.96 55.2912 11.16C56.9712 12.36 58.2432 13.992 59.1072 16.056C59.9712 18.12 60.4032 20.448 60.4032 23.04C60.4032 25.632 59.9632 27.96 59.0832 30.024C58.2192 32.088 56.9232 33.72 55.1952 34.92C53.4672 36.12 51.3152 36.72 48.7392 36.72ZM49.7952 30.912C51.2512 30.912 52.4112 30.584 53.2752 29.928C54.1552 29.272 54.7872 28.352 55.1712 27.168C55.5552 25.984 55.7472 24.608 55.7472 23.04C55.7472 21.472 55.5552 20.096 55.1712 18.912C54.7872 17.728 54.1712 16.808 53.3232 16.152C52.4912 15.496 51.3952 15.168 50.0352 15.168C48.5792 15.168 47.3792 15.528 46.4352 16.248C45.5072 16.952 44.8192 17.904 44.3712 19.104C43.9232 20.288 43.6992 21.6 43.6992 23.04C43.6992 24.496 43.9152 25.824 44.3472 27.024C44.7792 28.208 45.4432 29.152 46.3392 29.856C47.2352 30.56 48.3872 30.912 49.7952 30.912ZM83.9243 36V23.76C83.9243 23.168 83.8923 22.416 83.8283 21.504C83.7643 20.576 83.5643 19.648 83.2283 18.72C82.8923 17.792 82.3403 17.016 81.5723 16.392C80.8203 15.768 79.7483 15.456 78.3563 15.456C77.7963 15.456 77.1963 15.544 76.5563 15.72C75.9163 15.896 75.3163 16.24 74.7563 16.752C74.1963 17.248 73.7323 17.984 73.3643 18.96C73.0123 19.936 72.8363 21.232 72.8363 22.848L69.0923 21.072C69.0923 19.024 69.5083 17.104 70.3403 15.312C71.1723 13.52 72.4203 12.072 74.0843 10.968C75.7643 9.864 77.8763 9.312 80.4203 9.312C82.4523 9.312 84.1083 9.656 85.3883 10.344C86.6683 11.032 87.6603 11.904 88.3643 12.96C89.0843 14.016 89.5963 15.12 89.9003 16.272C90.2043 17.408 90.3883 18.448 90.4523 19.392C90.5163 20.336 90.5483 21.024 90.5483 21.456V36H83.9243ZM66.2123 36V10.08H72.0203V18.672H72.8363V36H66.2123ZM91.9759 36L103.592 18.528L92.3119 1.44H100.328L107.672 12.96L114.92 1.44H122.984L111.704 18.528L123.272 36H115.256L107.672 24.096L100.04 36H91.9759Z" fill="url(#paint0_linear_202_2)"/>
<defs>
<linearGradient id="paint0_linear_202_2" x1="2.00001" y1="22" x2="147.5" y2="22" gradientUnits="userSpaceOnUse">
<stop/>
<stop offset="1" stop-color="#FE4AEC"/>
</linearGradient>
</defs>
</svg>
