<svg width="201" height="30" viewBox="0 0 201 30" fill="none" xmlns="http://www.w3.org/2000/svg">
<path d="M33.389 24.1532L27.8481 30.0907C27.7283 30.2197 27.5831 30.3227 27.4217 30.3931C27.2603 30.4635 27.0861 30.5 26.91 30.5001H0.643785C0.518511 30.5001 0.395973 30.4635 0.291176 30.3949C0.186384 30.3263 0.103882 30.2286 0.0537734 30.1139C0.00366425 29.9991 -0.0118766 29.8723 0.00905508 29.7488C0.0299868 29.6254 0.086478 29.5107 0.171618 29.4189L5.70629 23.4814C5.82615 23.3524 5.97127 23.2495 6.13268 23.1791C6.29406 23.1087 6.46826 23.0722 6.64437 23.072H32.9106C33.037 23.0694 33.1614 23.1042 33.268 23.1721C33.3747 23.24 33.4591 23.3378 33.5101 23.4534C33.5613 23.569 33.577 23.6971 33.5554 23.8217C33.5338 23.9462 33.476 24.0616 33.389 24.1532ZM27.8481 12.1939C27.7278 12.0655 27.5826 11.963 27.4213 11.8926C27.26 11.8222 27.086 11.7854 26.91 11.7845H0.643785C0.518511 11.7846 0.395973 11.8212 0.291176 11.8898C0.186384 11.9584 0.103882 12.056 0.0537734 12.1708C0.00366425 12.2855 -0.0118766 12.4124 0.00905508 12.5358C0.0299868 12.6592 0.086478 12.7739 0.171618 12.8658L5.70629 18.8064C5.82659 18.9348 5.97183 19.0373 6.13312 19.1077C6.29441 19.1781 6.46839 19.2148 6.64437 19.2157H32.9106C33.0357 19.2151 33.1577 19.1781 33.2621 19.1092C33.3665 19.0404 33.4485 18.9427 33.4982 18.8281C33.5479 18.7135 33.5632 18.5868 33.542 18.4637C33.521 18.3405 33.4647 18.2262 33.3797 18.1345L27.8481 12.1939ZM0.643785 7.92825H26.91C27.0861 7.92809 27.2603 7.89162 27.4217 7.82118C27.5831 7.75078 27.7283 7.64784 27.8481 7.51887L33.389 1.58139C33.476 1.48967 33.5338 1.3743 33.5554 1.24977C33.577 1.12524 33.5613 0.997124 33.5101 0.881543C33.4591 0.765962 33.3747 0.66808 33.268 0.600214C33.1614 0.532347 33.037 0.497527 32.9106 0.500137H6.64437C6.46826 0.500322 6.29406 0.536767 6.13268 0.6072C5.97127 0.677633 5.82615 0.780543 5.70629 0.909512L0.171618 6.847C0.086478 6.93884 0.0299868 7.05353 0.00905508 7.17697C-0.0118766 7.3004 0.00366425 7.42725 0.0537734 7.542C0.103882 7.65675 0.186384 7.7544 0.291176 7.823C0.395973 7.89162 0.518511 7.92818 0.643785 7.92825Z" fill="url(#paint0_linear_269_7787)"/>
<path d="M65.412 13.1878H51.3596V8.56281H69.0643V3.93781H51.3127C50.7061 3.93453 50.1051 4.05066 49.5435 4.27956C48.9819 4.5085 48.4706 4.84572 48.0397 5.272C47.6085 5.69828 47.2655 6.20528 47.0304 6.764C46.7952 7.32275 46.6723 7.92231 46.6692 8.52844V13.2159C46.6717 13.8226 46.7936 14.4228 47.0285 14.9823C47.2633 15.5417 47.606 16.0495 48.0372 16.4764C48.4687 16.9034 48.98 17.2412 49.5419 17.4705C50.1038 17.6998 50.7058 17.8161 51.3127 17.8128H65.3839V22.4378H47.0038V27.0628H65.412C66.0187 27.0661 66.6197 26.95 67.1813 26.7211C67.7429 26.4921 68.2541 26.1549 68.685 25.7286C69.1162 25.3023 69.4592 24.7954 69.6944 24.2366C69.9295 23.6779 70.0524 23.0783 70.0555 22.4722V17.7847C70.053 17.178 69.9311 16.5778 69.6963 16.0183C69.4614 15.4589 69.1187 14.9512 68.6875 14.5242C68.256 14.0973 67.7447 13.7595 67.1828 13.5302C66.6209 13.3009 66.019 13.1845 65.412 13.1878Z" fill="white"/>
<path d="M92.6351 3.93765H78.5295C77.922 3.93272 77.3194 4.04762 76.7563 4.27581C76.1934 4.504 75.6809 4.84093 75.2484 5.2674C74.8157 5.69384 74.4717 6.20137 74.2359 6.76093C73.9999 7.3205 73.8767 7.92109 73.8735 8.52828V22.472C73.8767 23.0792 73.9999 23.6798 74.2359 24.2394C74.4717 24.7989 74.8157 25.3065 75.2484 25.7329C75.6809 26.1594 76.1934 26.4963 76.7563 26.7245C77.3194 26.9527 77.922 27.0676 78.5295 27.0627H92.6351C93.2418 27.0659 93.8428 26.9498 94.4044 26.7209C94.966 26.492 95.4772 26.1547 95.9081 25.7285C96.3393 25.3022 96.6823 24.7952 96.9175 24.2365C97.1526 23.6777 97.2755 23.0782 97.2786 22.472V8.52828C97.2755 7.92215 97.1526 7.32259 96.9175 6.76384C96.6823 6.20512 96.3393 5.69812 95.9081 5.27184C95.4772 4.84556 94.966 4.50834 94.4044 4.2794C93.8428 4.0505 93.2418 3.93437 92.6351 3.93765ZM92.6008 22.4377H78.5639V8.56265H92.5945L92.6008 22.4377Z" fill="white"/>
<path d="M142.041 3.9376H128.282C127.676 3.93432 127.075 4.05044 126.513 4.27935C125.951 4.50829 125.44 4.8455 125.009 5.27178C124.578 5.69807 124.235 6.20507 124 6.76378C123.765 7.32253 123.642 7.9221 123.639 8.52822V27.0626H128.329V19.4657H142.025V27.0626H146.715V8.52822C146.712 7.91944 146.588 7.31732 146.351 6.7565C146.114 6.19572 145.769 5.68735 145.334 5.26063C144.9 4.83394 144.385 4.49738 143.82 4.27032C143.254 4.04325 142.65 3.93019 142.041 3.9376ZM142.006 14.8407H128.31V8.5626H142.006V14.8407Z" fill="white"/>
<path d="M196.809 3.93781H183.05C182.444 3.93453 181.843 4.05066 181.281 4.27956C180.72 4.5085 180.209 4.84572 179.777 5.272C179.346 5.69828 179.003 6.20528 178.768 6.764C178.533 7.32275 178.41 7.92231 178.407 8.52844V27.0628H183.097V19.4659H196.762V27.0628H201.452V8.52844C201.449 7.92231 201.326 7.32275 201.091 6.764C200.856 6.20528 200.513 5.69828 200.082 5.272C199.651 4.84572 199.14 4.5085 198.578 4.27956C198.016 4.05066 197.416 3.93453 196.809 3.93781ZM196.762 14.8409H183.066V8.56281H196.762V14.8409Z" fill="white"/>
<path d="M169.558 22.4378H167.681L160.974 5.87528C160.744 5.30388 160.349 4.81416 159.838 4.46897C159.328 4.12375 158.726 3.93878 158.11 3.93778H153.948C153.543 3.93572 153.142 4.01332 152.768 4.1661C152.394 4.31891 152.053 4.54391 151.765 4.82828C151.478 5.11269 151.249 5.45085 151.093 5.82353C150.936 6.19619 150.854 6.59607 150.852 7.00028V27.0628H155.543V8.56278H157.419L164.123 25.1253C164.357 25.6956 164.755 26.1833 165.268 26.5262C165.78 26.8691 166.383 27.0515 167 27.0503H171.162C171.566 27.0523 171.967 26.9748 172.342 26.822C172.716 26.6692 173.057 26.4442 173.344 26.1598C173.632 25.8754 173.86 25.5372 174.017 25.1646C174.174 24.7919 174.255 24.392 174.257 23.9878V3.93778H169.558V22.4378Z" fill="white"/>
<path d="M106.112 3.93774H101.422V22.4721C101.425 23.0796 101.548 23.6804 101.784 24.2402C102.021 24.8 102.365 25.3076 102.798 25.7341C103.23 26.1606 103.743 26.4975 104.307 26.7255C104.87 26.9535 105.473 27.0681 106.081 27.0627H120.152V22.4377H106.112V3.93774Z" fill="white"/>
<defs>
<linearGradient id="paint0_linear_269_7787" x1="2.83264" y1="31.2158" x2="30.3556" y2="0.167601" gradientUnits="userSpaceOnUse">
<stop offset="0.08" stop-color="#9945FF"/>
<stop offset="0.3" stop-color="#8752F3"/>
<stop offset="0.5" stop-color="#5497D5"/>
<stop offset="0.6" stop-color="#43B4CA"/>
<stop offset="0.72" stop-color="#28E0B9"/>
<stop offset="0.97" stop-color="#19FB9B"/>
</linearGradient>
</defs>
</svg>
