<svg width="176" height="176" viewBox="0 0 176 176" fill="none" xmlns="http://www.w3.org/2000/svg">
<circle cx="88" cy="88" r="82" fill="url(#paint0_linear_490_179)" fill-opacity="0.12" stroke="#14FF00" stroke-width="12"/>
<path d="M82.0388 117.068C77.7216 117.046 73.8717 115.9 70.4891 113.63C67.1065 111.36 64.4472 108.222 62.5111 104.217C60.575 100.211 59.607 95.5933 59.607 90.3636C59.607 85.134 60.6195 80.5497 62.6446 76.6108C64.6697 72.6719 67.3847 69.6009 70.7895 67.3977C74.1943 65.1723 77.9775 64.0597 82.1389 64.0597C84.7871 64.0597 87.2351 64.5159 89.4827 65.4283C91.7526 66.3407 93.722 67.6536 95.3911 69.3672C97.0601 71.0585 98.3508 73.0724 99.2632 75.4091H103.937L108.243 90.2301L114.385 116H102.234L96.4926 90.2301C96.1588 88.5166 95.7026 86.8587 95.124 85.2564C94.5454 83.6541 93.7999 82.2187 92.8875 80.9503C91.9974 79.6596 90.9181 78.647 89.6496 77.9126C88.3811 77.1783 86.9124 76.8111 85.2433 76.8111C83.1292 76.8111 81.3378 77.3897 79.8691 78.5469C78.4226 79.6818 77.3099 81.2507 76.531 83.2535C75.7744 85.2564 75.396 87.5597 75.396 90.1634C75.396 92.8561 75.7855 95.2483 76.5644 97.3402C77.3655 99.4098 78.4782 101.045 79.9024 102.247C81.3267 103.427 82.9623 104.016 84.8094 104.016C86.3672 104.016 87.7914 103.616 89.0821 102.815C90.3728 102.013 91.5078 100.956 92.487 99.6435C93.4884 98.3082 94.3229 96.8506 94.9905 95.2706C95.6804 93.6683 96.1811 92.0772 96.4926 90.4972L101.8 64.7273H113.717L108.243 90.4972L103.937 104.751H99.3634C98.5177 107.065 97.3271 109.157 95.7916 111.026C94.2561 112.873 92.3423 114.342 90.0502 115.433C87.7803 116.523 85.1098 117.068 82.0388 117.068Z" fill="black"/>
<defs>
<linearGradient id="paint0_linear_490_179" x1="130.694" y1="1.31641e-06" x2="46.9483" y2="-1.11959" gradientUnits="userSpaceOnUse">
<stop stop-color="#7000FF"/>
<stop offset="1" stop-color="#AE2727"/>
</linearGradient>
</defs>
</svg>
