<svg width="176" height="176" viewBox="0 0 176 176" fill="none" xmlns="http://www.w3.org/2000/svg">
<circle cx="88" cy="88" r="88" fill="#C2A6F1"/>
<circle cx="88" cy="88" r="88" fill="url(#paint0_radial_490_180)"/>
<circle cx="88" cy="88" r="88" fill="url(#paint1_linear_490_180)"/>
<circle cx="88" cy="88" r="88" fill="url(#paint2_linear_490_180)"/>
<circle cx="88" cy="88" r="88" fill="url(#paint3_linear_490_180)"/>
<circle cx="88" cy="88" r="88" fill="url(#paint4_radial_490_180)"/>
<circle cx="88" cy="88" r="88" fill="url(#paint5_radial_490_180)"/>
<circle cx="88" cy="88" r="88" fill="url(#paint6_radial_490_180)"/>
<circle cx="88" cy="88" r="88" fill="url(#paint7_linear_490_180)"/>
<path d="M87.0542 79.4773H93.4299C98.1922 79.4773 102.265 80.3563 105.647 82.1143C109.03 83.8724 111.622 86.2647 113.425 89.2912C115.25 92.3177 116.151 95.7114 116.129 99.4723C116.151 103.5 115.205 107.027 113.291 110.054C111.4 113.058 108.852 115.406 105.647 117.097C102.465 118.766 98.9377 119.601 95.0655 119.601C92.8179 119.601 90.6259 119.323 88.4895 118.766C86.3532 118.188 84.3169 117.242 82.3809 115.929L81.9469 116.096V96.6016C81.9692 98.3596 82.3475 99.9619 83.0819 101.408C83.8385 102.855 84.9178 104.012 86.3198 104.88C87.744 105.748 89.4576 106.182 91.4604 106.182C93.2852 106.182 94.8764 105.826 96.2338 105.114C97.6136 104.379 98.6818 103.389 99.4384 102.143C100.195 100.874 100.562 99.45 100.54 97.87C100.562 96.0452 100.106 94.5431 99.1713 93.3636C98.2367 92.1842 97.0239 91.3163 95.5328 90.7599C94.0641 90.2036 92.4618 89.9254 90.726 89.9254H87.0542V79.4773ZM90.0918 49.7017C93.007 49.7017 95.8333 50.1023 98.5705 50.9034C101.33 51.6823 103.811 52.8506 106.014 54.4084C108.218 55.9661 109.964 57.8911 111.255 60.1832C112.546 62.4754 113.191 65.1347 113.191 68.1612C113.213 71.4548 112.39 74.6482 110.721 77.7415C109.052 80.8125 106.671 83.3494 103.578 85.3523C100.484 87.3329 96.8013 88.3232 92.5286 88.3232H87.0542V78.6094H89.8581C91.95 78.6094 93.5411 78.2088 94.6316 77.4077C95.722 76.5843 96.4675 75.594 96.8681 74.4368C97.2686 73.2573 97.4578 72.1558 97.4355 71.1321C97.4578 68.9735 96.8236 67.2154 95.5328 65.858C94.2644 64.4782 92.4507 63.7883 90.0918 63.7883C88.5118 63.7883 87.1098 64.1222 85.8858 64.7898C84.6619 65.4574 83.705 66.4588 83.0151 67.794C82.3252 69.107 81.9692 70.7538 81.9469 72.7344V138.227H66.258V71.5327C66.2802 66.9929 67.3596 63.0985 69.4959 59.8494C71.6545 56.5781 74.5364 54.0746 78.1415 52.3388C81.7466 50.5807 85.7301 49.7017 90.0918 49.7017Z" fill="black"/>
<defs>
<radialGradient id="paint0_radial_490_180" cx="0" cy="0" r="1" gradientUnits="userSpaceOnUse" gradientTransform="translate(159.72 70.6642) rotate(105.702) scale(178.021 81.3369)">
<stop stop-color="#FFFDB1"/>
<stop offset="0.344597" stop-color="#FEE4BF"/>
<stop offset="0.695017" stop-color="#F0BDD0"/>
<stop offset="1" stop-color="#FF8126" stop-opacity="0"/>
</radialGradient>
<linearGradient id="paint1_linear_490_180" x1="99.99" y1="-11.8874" x2="141.841" y2="21.4421" gradientUnits="userSpaceOnUse">
<stop stop-color="#C0A9F0" stop-opacity="0"/>
<stop offset="0.456382" stop-color="#C0A9F0"/>
<stop offset="1" stop-color="#C0A9F0" stop-opacity="0"/>
</linearGradient>
<linearGradient id="paint2_linear_490_180" x1="188.54" y1="-41.2758" x2="139.542" y2="25.0755" gradientUnits="userSpaceOnUse">
<stop stop-color="#C0A9F0" stop-opacity="0"/>
<stop offset="0.461891" stop-color="#C0A9F0"/>
<stop offset="1" stop-color="#C0A9F0" stop-opacity="0"/>
</linearGradient>
<linearGradient id="paint3_linear_490_180" x1="44.77" y1="27.7373" x2="92.9872" y2="75.2724" gradientUnits="userSpaceOnUse">
<stop stop-color="#CDF9E8"/>
<stop offset="1" stop-color="#CDF9E8" stop-opacity="0"/>
</linearGradient>
<radialGradient id="paint4_radial_490_180" cx="0" cy="0" r="1" gradientUnits="userSpaceOnUse" gradientTransform="translate(80.19 78.5891) rotate(-117.358) scale(54.0957 106.894)">
<stop stop-color="#CBADEB"/>
<stop offset="1" stop-color="#C2A6F1" stop-opacity="0"/>
</radialGradient>
<radialGradient id="paint5_radial_490_180" cx="0" cy="0" r="1" gradientUnits="userSpaceOnUse" gradientTransform="translate(63.14 176) rotate(-125.099) scale(77.2885 102.926)">
<stop stop-color="#DC8DDC"/>
<stop offset="1" stop-color="#DC8DDC" stop-opacity="0"/>
</radialGradient>
<radialGradient id="paint6_radial_490_180" cx="0" cy="0" r="1" gradientUnits="userSpaceOnUse" gradientTransform="translate(77.88 153.051) rotate(-136.482) scale(66.8961 126.779)">
<stop stop-color="#DC8DDC"/>
<stop offset="1" stop-color="#DC8DDC" stop-opacity="0"/>
</radialGradient>
<linearGradient id="paint7_linear_490_180" x1="0" y1="0" x2="175.686" y2="41.3727" gradientUnits="userSpaceOnUse">
<stop stop-color="#F3FFEE"/>
<stop offset="0.46875" stop-color="#FFD7CC" stop-opacity="0.494792"/>
<stop offset="1" stop-color="#D0E87F" stop-opacity="0"/>
<stop offset="1" stop-color="#BCEC1D" stop-opacity="0"/>
</linearGradient>
</defs>
</svg>
