<svg width="104" height="127" viewBox="0 0 104 127" fill="none" xmlns="http://www.w3.org/2000/svg">
<path d="M55.8907 62.7372C58.053 65.4151 60.454 68.3545 62.1385 70.4096C64.0116 64.8297 61.51 57.0327 58.7192 51.2036C58.053 54.8281 57.1227 58.6643 55.8907 62.7372Z" fill="#F2C94C"/>
<path d="M42.7164 42.0864C39.9382 44.7269 37.4491 49.6592 39.3222 57.369C41.0067 57.232 43.3952 57.0452 45.5574 56.8459C44.3255 51.3656 43.3952 46.4707 42.7164 42.0864Z" fill="#F2994A"/>
<path opacity="0.2" d="M48.7001 69.5504C33.1624 10.4376 45.9471 5.41815 50.7743 3.40039C55.6016 10.9483 68.3737 30.5778 52.8234 71.9044L48.7001 69.5504Z" fill="url(#paint0_linear_219_156)"/>
<path opacity="0.1" d="M53.2759 66.15C37.7382 7.04968 50.5103 2.01775 55.3502 0C60.1774 7.5479 72.9496 27.1774 57.3992 68.504L53.2759 66.15Z" fill="url(#paint1_linear_219_156)"/>
<path opacity="0.15" d="M52.8234 71.9044C68.3737 30.5778 55.6016 10.9483 50.7743 3.40039V70.7336L52.8234 71.9044Z" fill="url(#paint2_linear_219_156)"/>
<path opacity="0.1" d="M55.4005 24.2131C55.4005 27.8127 53.2635 29.5066 50.6235 27.9995C47.9836 26.4924 45.8466 22.3448 45.8466 18.7453C45.8466 15.1457 47.9836 13.4518 50.6235 14.9589C53.2635 16.4659 55.4005 20.6136 55.4005 24.2131Z" fill="white"/>
<path opacity="0.1" d="M54.4576 85.2812C53.364 83.5125 52.836 81.2706 52.3709 79.3026C51.8303 77.0358 51.3777 75.1052 50.2463 74.6195C48.9515 74.059 48.3733 75.4789 47.5562 77.4468C47.0785 78.6052 46.5128 79.9752 45.6831 81.2332C44.7905 80.2991 43.8477 79.5268 42.8546 78.9664C38.6936 76.5874 35.224 78.6425 34.4069 83.5499C33.8412 83.1264 33.2755 82.7403 32.6972 82.404C26.022 78.5927 20.6165 82.9147 20.6165 92.0818C20.6165 101.236 26.022 111.749 32.6846 115.56C39.1587 119.259 44.4511 115.286 44.7528 106.679C45.9722 108.921 47.5939 110.802 49.3915 111.823C49.8566 112.085 50.3092 112.284 50.7366 112.409C53.3262 118.051 57.1856 122.909 61.4974 125.375C69.2914 129.834 75.6147 124.802 75.6272 114.14C75.6272 103.478 69.304 91.2099 61.51 86.7509C58.9329 85.2812 56.5319 84.8328 54.4576 85.2812Z" fill="url(#paint3_linear_219_156)"/>
<path opacity="0.3" d="M67.0161 44.5027L101.046 63.9703L101.058 81.5446L70.0332 63.7959L67.0287 64.7674L67.0161 44.5027Z" fill="url(#paint4_linear_219_156)"/>
<path d="M91.1525 67.0592V62.2888L104 69.6374V74.4078L91.1525 67.0592Z" fill="#F2C94C"/>
<path opacity="0.1" d="M75.7656 53.782L83.2202 58.0417V59.5861L75.7656 55.3264V53.782Z" fill="white"/>
<path opacity="0.1" d="M75.7781 56.8708L89.2291 64.5682V66.1127L75.7781 58.4153V56.8708Z" fill="white"/>
<path opacity="0.15" d="M75.7781 59.9597L93.1889 69.9239V71.4684L75.7781 61.5042V59.9597Z" fill="white"/>
<path d="M73.9301 54.3424C73.9301 55.7872 73.0627 56.4722 71.9942 55.8619C70.9256 55.2516 70.0582 53.5826 70.0582 52.1378C70.0582 50.693 70.9256 50.0079 71.9942 50.6183C73.0753 51.2286 73.9301 52.8976 73.9301 54.3424Z" fill="#F2C94C"/>
<path opacity="0.3" d="M37.6627 19.6793L3.63293 0.224121L3.64551 17.7985L34.6708 35.5348L37.6753 39.944L37.6627 19.6793Z" fill="url(#paint5_linear_219_156)"/>
<path d="M0 7.07457V2.3042L12.8476 9.65281V14.4232L0 7.07457Z" fill="#F2994A"/>
<path opacity="0.15" d="M28.9134 18.957L21.4587 14.6973V16.2417L28.9134 20.5014V18.957Z" fill="white"/>
<path opacity="0.15" d="M28.9134 22.0459L14.5447 13.8254V15.3699L28.9134 23.5904V22.0459Z" fill="white"/>
<path opacity="0.15" d="M28.9133 25.1346L11.5024 15.1704V16.7149L28.9133 26.6791V25.1346Z" fill="white"/>
<path d="M30.7487 21.6099C30.7487 23.0547 31.6161 24.7237 32.6846 25.334C33.7532 25.9443 34.6206 25.2593 34.6206 23.8144C34.6206 22.3696 33.7532 20.7006 32.6846 20.0903C31.6161 19.4925 30.7487 20.165 30.7487 21.6099Z" fill="#F2994A"/>
<path opacity="0.2" d="M33.1372 38.4369L12.8098 26.8162V37.3035L33.1372 48.9243V38.4369Z" fill="url(#paint6_linear_219_156)"/>
<path opacity="0.15" d="M18.0143 32.3091L24.9786 36.2948V37.5528L18.0143 33.5671V32.3091Z" fill="white"/>
<path opacity="0.15" d="M18.0143 34.8374L31.0379 42.2857V43.5561L18.0143 36.1078V34.8374Z" fill="white"/>
<path d="M16.9456 32.6827C16.9456 33.5421 16.4302 33.9531 15.7891 33.5919C15.148 33.2307 14.6326 32.2343 14.6326 31.3624C14.6326 30.503 15.148 30.092 15.7891 30.4532C16.4176 30.8269 16.9456 31.8233 16.9456 32.6827Z" fill="#F2994A"/>
<path opacity="0.2" d="M93.5032 46.3586L73.1759 34.7378V45.2251L93.5032 56.8584V46.3586Z" fill="url(#paint7_linear_219_156)"/>
<path opacity="0.15" d="M78.3804 40.2429L85.3447 44.2286V45.4866L78.3804 41.5009V40.2429Z" fill="white"/>
<path opacity="0.15" d="M78.3928 42.7715L91.4164 50.2197V51.4902L78.3928 44.0419V42.7715Z" fill="white"/>
<path d="M77.3117 40.6166C77.3117 41.476 76.7963 41.887 76.1552 41.5258C75.5141 41.1646 74.9987 40.1682 74.9987 39.2963C74.9987 38.4369 75.5141 38.0258 76.1552 38.3871C76.7963 38.7607 77.3117 39.7571 77.3117 40.6166Z" fill="#F2C94C"/>
<defs>
<linearGradient id="paint0_linear_219_156" x1="68.8885" y1="5.4962" x2="30.351" y2="72.8831" gradientUnits="userSpaceOnUse">
<stop stop-color="white"/>
<stop offset="1" stop-color="white" stop-opacity="0"/>
</linearGradient>
<linearGradient id="paint1_linear_219_156" x1="73.4631" y1="2.09676" x2="34.9257" y2="69.4836" gradientUnits="userSpaceOnUse">
<stop stop-color="white"/>
<stop offset="1" stop-color="white" stop-opacity="0"/>
</linearGradient>
<linearGradient id="paint2_linear_219_156" x1="61.6013" y1="20.1231" x2="31.8603" y2="74.2852" gradientUnits="userSpaceOnUse">
<stop stop-color="white" stop-opacity="0"/>
<stop offset="1" stop-color="white"/>
</linearGradient>
<linearGradient id="paint3_linear_219_156" x1="58.7634" y1="85.1839" x2="42.1184" y2="114.29" gradientUnits="userSpaceOnUse">
<stop stop-color="white"/>
<stop offset="1" stop-color="white" stop-opacity="0"/>
</linearGradient>
<linearGradient id="paint4_linear_219_156" x1="81.6376" y1="45.0717" x2="85.9579" y2="80.4377" gradientUnits="userSpaceOnUse">
<stop stop-color="white"/>
<stop offset="1" stop-color="white" stop-opacity="0"/>
</linearGradient>
<linearGradient id="paint5_linear_219_156" x1="30.2415" y1="12.6421" x2="12.7933" y2="26.4304" gradientUnits="userSpaceOnUse">
<stop stop-color="white"/>
<stop offset="1" stop-color="white" stop-opacity="0"/>
</linearGradient>
<linearGradient id="paint6_linear_219_156" x1="25.2638" y1="33.9314" x2="20.743" y2="41.8365" gradientUnits="userSpaceOnUse">
<stop stop-color="white"/>
<stop offset="1" stop-color="white" stop-opacity="0"/>
</linearGradient>
<linearGradient id="paint7_linear_219_156" x1="85.6377" y1="41.8627" x2="81.1169" y2="49.7677" gradientUnits="userSpaceOnUse">
<stop stop-color="white"/>
<stop offset="1" stop-color="white" stop-opacity="0"/>
</linearGradient>
</defs>
</svg>
