<svg width="161" height="32" viewBox="0 0 161 32" fill="none" xmlns="http://www.w3.org/2000/svg">
<path d="M4.60788 31.3382V24.5908L4.351 22.221H4.60788C5.03603 22.9451 5.68359 23.5485 6.55059 24.0313C7.41758 24.514 8.40766 24.7554 9.52084 24.7554C10.9979 24.7554 12.3412 24.3769 13.5507 23.6198C14.7602 22.8628 15.7075 21.8095 16.3925 20.4601C17.0776 19.1106 17.4201 17.5691 17.4201 15.8356C17.4201 14.1241 17.0776 12.5881 16.3925 11.2276C15.7075 9.86714 14.7602 8.8084 13.5507 8.05137C12.3412 7.29434 10.9979 6.91582 9.52084 6.91582C8.40766 6.91582 7.42293 7.16268 6.56664 7.65639C5.71035 8.15011 5.05743 8.75902 4.60788 9.48314H4.351V7.44245H0.401367V31.3382H4.60788ZM8.78229 20.7727C8.01163 20.7727 7.28378 20.5643 6.59875 20.1474C5.91372 19.7305 5.36784 19.149 4.9611 18.4029C4.55436 17.6569 4.351 16.8011 4.351 15.8356C4.351 14.8701 4.55436 14.0143 4.9611 13.2683C5.36784 12.5222 5.91372 11.9462 6.59875 11.5403C7.28378 11.1343 8.01163 10.9314 8.78229 10.9314C9.57435 10.9314 10.3129 11.1343 10.9979 11.5403C11.683 11.9462 12.2288 12.5222 12.6356 13.2683C13.0423 14.0143 13.2457 14.8701 13.2457 15.8356C13.2457 16.8011 13.0423 17.6569 12.6356 18.4029C12.2288 19.149 11.683 19.7305 10.9979 20.1474C10.3129 20.5643 9.57435 20.7727 8.78229 20.7727ZM28.4983 24.7554C30.1681 24.7554 31.6666 24.3659 32.9938 23.5869C34.3211 22.8079 35.354 21.7437 36.0925 20.3942C36.8311 19.0447 37.2004 17.5252 37.2004 15.8356C37.2004 14.1679 36.8311 12.6539 36.0925 11.2934C35.354 9.93297 34.3211 8.86325 32.9938 8.08428C31.6666 7.30531 30.1681 6.91582 28.4983 6.91582C26.8072 6.91582 25.2979 7.30531 23.9707 8.08428C22.6435 8.86325 21.6106 9.93297 20.872 11.2934C20.1335 12.6539 19.7642 14.1679 19.7642 15.8356C19.7642 17.5252 20.1335 19.0447 20.872 20.3942C21.6106 21.7437 22.6435 22.8079 23.9707 23.5869C25.2979 24.3659 26.8072 24.7554 28.4983 24.7554ZM28.4983 20.7727C27.6848 20.7727 26.9356 20.5753 26.2506 20.1803C25.5655 19.7853 25.0143 19.2093 24.5969 18.4523C24.1794 17.6953 23.9707 16.823 23.9707 15.8356C23.9707 14.8482 24.1794 13.9814 24.5969 13.2354C25.0143 12.4893 25.5655 11.9188 26.2506 11.5238C26.9356 11.1289 27.6848 10.9314 28.4983 10.9314C29.3118 10.9314 30.061 11.1289 30.7461 11.5238C31.4311 11.9188 31.977 12.4893 32.3837 13.2354C32.7905 13.9814 32.9938 14.8482 32.9938 15.8356C32.9938 16.845 32.7905 17.7227 32.3837 18.4687C31.977 19.2148 31.4311 19.7853 30.7461 20.1803C30.061 20.5753 29.3118 20.7727 28.4983 20.7727ZM44.6179 24.2287V0.662109H40.4114V24.2287H44.6179ZM54.8934 31.3382L65.0083 7.44245H60.3201L56.2421 17.8763H55.9852L51.7465 7.44245H46.962L53.8659 23.4388L50.3658 31.3382H54.8934ZM74.8663 31.8649C76.5575 31.8649 78.0346 31.5083 79.2976 30.7951C80.5606 30.082 81.5347 29.0671 82.2197 27.7506C82.9047 26.434 83.2472 24.8761 83.2472 23.0767V7.44245H79.2013V9.21982H78.9444C78.4306 8.47377 77.7563 7.90325 76.9214 7.50828C76.0865 7.11331 75.1339 6.91582 74.0636 6.91582C72.7149 6.91582 71.4572 7.2724 70.2905 7.98554C69.1238 8.69868 68.1873 9.70805 67.4808 11.0137C66.7744 12.3193 66.4212 13.8388 66.4212 15.5723C66.4212 17.3058 66.7744 18.8253 67.4808 20.1309C68.1873 21.4365 69.1238 22.4459 70.2905 23.159C71.4572 23.8722 72.7149 24.2287 74.0636 24.2287C75.1339 24.2287 76.0865 24.0313 76.9214 23.6363C77.7563 23.2413 78.4306 22.6708 78.9444 21.9247H79.2013V23.2413C79.2013 24.7773 78.8106 25.9622 78.0292 26.7961C77.2479 27.6299 76.1936 28.0468 74.8663 28.0468C73.9672 28.0468 73.1645 27.8054 72.458 27.3227C71.7516 26.8399 71.2271 26.1817 70.8846 25.3478L66.935 26.9935C67.4059 28.3321 68.3264 29.4786 69.6965 30.4331C71.0666 31.3876 72.7898 31.8649 74.8663 31.8649ZM74.9305 20.3119C73.7317 20.3119 72.7149 19.895 71.88 19.0612C71.0451 18.2274 70.6277 17.0644 70.6277 15.5723C70.6277 14.0802 71.0451 12.9172 71.88 12.0834C72.7149 11.2495 73.7317 10.8326 74.9305 10.8326C76.1293 10.8326 77.1408 11.2441 77.965 12.0669C78.7892 12.8898 79.2013 14.0582 79.2013 15.5723C79.2013 17.0425 78.7838 18.1999 77.949 19.0447C77.1141 19.8895 76.1079 20.3119 74.9305 20.3119ZM95.1925 24.7554C96.8622 24.7554 98.3607 24.3659 99.688 23.5869C101.015 22.8079 102.048 21.7437 102.787 20.3942C103.525 19.0447 103.894 17.5252 103.894 15.8356C103.894 14.1679 103.525 12.6539 102.787 11.2934C102.048 9.93297 101.015 8.86325 99.688 8.08428C98.3607 7.30531 96.8622 6.91582 95.1925 6.91582C93.5013 6.91582 91.9921 7.30531 90.6648 8.08428C89.3376 8.86325 88.3047 9.93297 87.5661 11.2934C86.8276 12.6539 86.4583 14.1679 86.4583 15.8356C86.4583 17.5252 86.8276 19.0447 87.5661 20.3942C88.3047 21.7437 89.3376 22.8079 90.6648 23.5869C91.9921 24.3659 93.5013 24.7554 95.1925 24.7554ZM95.1925 20.7727C94.379 20.7727 93.6297 20.5753 92.9447 20.1803C92.2597 19.7853 91.7084 19.2093 91.291 18.4523C90.8736 17.6953 90.6648 16.823 90.6648 15.8356C90.6648 14.8482 90.8736 13.9814 91.291 13.2354C91.7084 12.4893 92.2597 11.9188 92.9447 11.5238C93.6297 11.1289 94.379 10.9314 95.1925 10.9314C96.0059 10.9314 96.7552 11.1289 97.4402 11.5238C98.1253 11.9188 98.6711 12.4893 99.0779 13.2354C99.4846 13.9814 99.688 14.8482 99.688 15.8356C99.688 16.845 99.4846 17.7227 99.0779 18.4687C98.6711 19.2148 98.1253 19.7853 97.4402 20.1803C96.7552 20.5753 96.0059 20.7727 95.1925 20.7727ZM111.312 24.2287V15.671C111.312 14.3106 111.66 13.1805 112.356 12.2809C113.051 11.3812 113.967 10.9314 115.101 10.9314C116.064 10.9314 116.814 11.2276 117.349 11.8201C117.884 12.4125 118.152 13.2463 118.152 14.3215V24.2287H122.358V13.7949C122.358 11.6665 121.844 9.98782 120.817 8.75902C119.789 7.53022 118.291 6.91582 116.321 6.91582C115.272 6.91582 114.298 7.15171 113.399 7.62348C112.5 8.09525 111.804 8.73708 111.312 9.54897H111.055V7.44245H107.106V24.2287H111.312Z" fill="#5F5CFF"/>
<path d="M128.877 24.4261C129.647 24.4261 130.306 24.1463 130.852 23.5868C131.397 23.0272 131.67 22.3525 131.67 21.5626C131.67 20.7726 131.397 20.1034 130.852 19.5548C130.306 19.0062 129.647 18.7319 128.877 18.7319C128.106 18.7319 127.448 19.0062 126.902 19.5548C126.356 20.1034 126.083 20.7726 126.083 21.5626C126.083 22.3525 126.356 23.0272 126.902 23.5868C127.448 24.1463 128.106 24.4261 128.877 24.4261ZM137.9 5.59914C138.649 5.59914 139.286 5.32485 139.81 4.77628C140.335 4.22771 140.597 3.56942 140.597 2.80142C140.597 2.03342 140.335 1.38062 139.81 0.843021C139.286 0.305421 138.649 0.0366211 137.9 0.0366211C137.151 0.0366211 136.508 0.305421 135.973 0.843021C135.438 1.38062 135.17 2.03342 135.17 2.80142C135.17 3.56942 135.438 4.22771 135.973 4.77628C136.508 5.32485 137.151 5.59914 137.9 5.59914ZM139.987 24.2286V7.44234H135.781V24.2286H139.987ZM152.221 24.7552C153.891 24.7552 155.39 24.3658 156.717 23.5868C158.044 22.8078 159.077 21.7436 159.815 20.3941C160.554 19.0446 160.923 17.5251 160.923 15.8355C160.923 14.1678 160.554 12.6538 159.815 11.2933C159.077 9.93285 158.044 8.86314 156.717 8.08416C155.39 7.30519 153.891 6.91571 152.221 6.91571C150.53 6.91571 149.021 7.30519 147.694 8.08416C146.366 8.86314 145.333 9.93285 144.595 11.2933C143.856 12.6538 143.487 14.1678 143.487 15.8355C143.487 17.5251 143.856 19.0446 144.595 20.3941C145.333 21.7436 146.366 22.8078 147.694 23.5868C149.021 24.3658 150.53 24.7552 152.221 24.7552ZM152.221 20.7726C151.408 20.7726 150.659 20.5751 149.974 20.1802C149.288 19.7852 148.737 19.2092 148.32 18.4522C147.902 17.6951 147.694 16.8229 147.694 15.8355C147.694 14.8481 147.902 13.9813 148.32 13.2352C148.737 12.4892 149.288 11.9187 149.974 11.5237C150.659 11.1287 151.408 10.9312 152.221 10.9312C153.035 10.9312 153.784 11.1287 154.469 11.5237C155.154 11.9187 155.7 12.4892 156.107 13.2352C156.513 13.9813 156.717 14.8481 156.717 15.8355C156.717 16.8449 156.513 17.7226 156.107 18.4686C155.7 19.2147 155.154 19.7852 154.469 20.1802C153.784 20.5751 153.035 20.7726 152.221 20.7726Z" fill="#5F5CFF"/>
</svg>
