<svg width="1114" height="106" viewBox="0 0 1114 106" fill="none" xmlns="http://www.w3.org/2000/svg">
<path d="M218.271 53L206.418 12.2727H217.296L223.441 38.9602H223.779L230.799 12.2727H239.668L246.688 39.0199H247.026L253.191 12.2727H264.049L252.217 53H242.731L235.393 28.3011H235.074L227.736 53H218.271ZM275.6 35.5795V53H265.876V12.2727H275.282V28.0625H275.62C276.309 26.1799 277.436 24.7083 279.001 23.6477C280.578 22.5871 282.507 22.0568 284.788 22.0568C286.935 22.0568 288.805 22.5341 290.396 23.4886C291.986 24.4299 293.219 25.7623 294.094 27.4858C294.983 29.2093 295.42 31.2244 295.407 33.5312V53H285.683V35.4403C285.696 33.7434 285.272 32.4176 284.41 31.4631C283.548 30.5085 282.335 30.0312 280.771 30.0312C279.75 30.0312 278.848 30.2566 278.066 30.7074C277.297 31.1449 276.694 31.7746 276.256 32.5966C275.832 33.4186 275.613 34.4129 275.6 35.5795ZM304.09 64.4545C302.923 64.4545 301.822 64.3617 300.788 64.1761C299.754 64.0038 298.866 63.7718 298.124 63.4801L300.271 56.4205C301.226 56.7386 302.088 56.9242 302.857 56.9773C303.639 57.0303 304.308 56.9044 304.865 56.5994C305.435 56.3078 305.873 55.7841 306.178 55.0284L306.555 54.1136L295.697 22.4545H305.879L311.507 44.25H311.825L317.533 22.4545H327.774L316.26 55.9233C315.703 57.5938 314.914 59.0653 313.893 60.3381C312.886 61.6241 311.58 62.6316 309.976 63.3608C308.385 64.09 306.423 64.4545 304.09 64.4545ZM630.085 31.7812L621.156 32.0199C621.064 31.3835 620.812 30.8201 620.401 30.3295C619.99 29.8258 619.453 29.4347 618.79 29.1562C618.14 28.8646 617.385 28.7188 616.523 28.7188C615.396 28.7188 614.435 28.9441 613.639 29.3949C612.857 29.8456 612.473 30.4555 612.486 31.2244C612.473 31.821 612.711 32.3381 613.202 32.7756C613.706 33.2131 614.601 33.5644 615.887 33.8295L621.773 34.9432C624.822 35.5265 627.089 36.4943 628.574 37.8466C630.072 39.1989 630.828 40.9886 630.841 43.2159C630.828 45.3106 630.205 47.1335 628.972 48.6847C627.752 50.2358 626.082 51.4422 623.96 52.304C621.839 53.1525 619.413 53.5767 616.682 53.5767C612.32 53.5767 608.88 52.6818 606.361 50.892C603.855 49.089 602.424 46.6761 602.066 43.6534L611.671 43.4148C611.883 44.5284 612.433 45.3769 613.321 45.9602C614.21 46.5436 615.343 46.8352 616.722 46.8352C617.968 46.8352 618.982 46.6032 619.764 46.1392C620.547 45.6752 620.944 45.0587 620.958 44.2898C620.944 43.6004 620.639 43.0502 620.043 42.6392C619.446 42.215 618.512 41.8835 617.239 41.6449L611.909 40.6307C608.847 40.0739 606.567 39.0464 605.068 37.5483C603.57 36.0369 602.828 34.1146 602.841 31.7812C602.828 29.7396 603.371 27.9962 604.472 26.5511C605.572 25.0928 607.137 23.9792 609.165 23.2102C611.193 22.4413 613.586 22.0568 616.344 22.0568C620.48 22.0568 623.742 22.9252 626.128 24.6619C628.514 26.3854 629.834 28.7585 630.085 31.7812ZM633.389 53V22.4545H643.113V53H633.389ZM638.261 18.8949C636.895 18.8949 635.722 18.4441 634.741 17.5426C633.76 16.6278 633.269 15.5275 633.269 14.2415C633.269 12.9687 633.76 11.8816 634.741 10.9801C635.722 10.0653 636.895 9.60795 638.261 9.60795C639.64 9.60795 640.813 10.0653 641.781 10.9801C642.762 11.8816 643.252 12.9687 643.252 14.2415C643.252 15.5275 642.762 16.6278 641.781 17.5426C640.813 18.4441 639.64 18.8949 638.261 18.8949ZM661.301 65.0909C658.398 65.0909 655.912 64.6866 653.844 63.8778C651.776 63.0691 650.152 61.9621 648.972 60.5568C647.792 59.1515 647.083 57.5606 646.844 55.7841L656.051 55.267C656.224 55.8902 656.542 56.4337 657.006 56.8977C657.483 57.3617 658.1 57.7197 658.855 57.9716C659.624 58.2235 660.526 58.3494 661.56 58.3494C663.191 58.3494 664.536 57.9517 665.597 57.1562C666.671 56.3741 667.208 55.0019 667.208 53.0398V47.6705H666.87C666.485 48.6117 665.902 49.4536 665.12 50.196C664.337 50.9384 663.363 51.5218 662.196 51.946C661.043 52.3703 659.717 52.5824 658.219 52.5824C655.992 52.5824 653.95 52.0653 652.094 51.0312C650.251 49.9839 648.773 48.3665 647.659 46.179C646.559 43.9782 646.009 41.1477 646.009 37.6875C646.009 34.1212 646.579 31.1847 647.719 28.8778C648.859 26.5578 650.351 24.8409 652.194 23.7273C654.05 22.6136 656.045 22.0568 658.179 22.0568C659.784 22.0568 661.156 22.3352 662.296 22.892C663.449 23.4356 664.397 24.1383 665.14 25C665.882 25.8617 666.445 26.7566 666.83 27.6847H667.108V22.4545H676.793V53.1193C676.793 55.7045 676.143 57.8854 674.844 59.6619C673.545 61.4384 671.729 62.7841 669.395 63.6989C667.062 64.6269 664.364 65.0909 661.301 65.0909ZM661.6 45.5028C662.78 45.5028 663.787 45.1913 664.623 44.5682C665.458 43.9451 666.101 43.0502 666.551 41.8835C667.002 40.7169 667.228 39.3182 667.228 37.6875C667.228 36.0303 667.002 34.6051 666.551 33.4119C666.114 32.2055 665.471 31.2775 664.623 30.6278C663.787 29.9782 662.78 29.6534 661.6 29.6534C660.393 29.6534 659.373 29.9848 658.537 30.6477C657.702 31.3106 657.066 32.2453 656.628 33.4517C656.204 34.6449 655.992 36.0568 655.992 37.6875C655.992 39.3182 656.211 40.7169 656.648 41.8835C657.086 43.0502 657.715 43.9451 658.537 44.5682C659.373 45.1913 660.393 45.5028 661.6 45.5028ZM690.477 35.5795V53H680.753V22.4545H690V28.0625H690.338C691.014 26.1932 692.167 24.7282 693.798 23.6676C695.429 22.5938 697.371 22.0568 699.625 22.0568C701.772 22.0568 703.635 22.5407 705.213 23.5085C706.804 24.4631 708.037 25.8021 708.912 27.5256C709.8 29.2358 710.237 31.2377 710.224 33.5312V53H700.5V35.4403C700.513 33.7434 700.082 32.4176 699.207 31.4631C698.345 30.5085 697.146 30.0312 695.608 30.0312C694.587 30.0312 693.685 30.2566 692.903 30.7074C692.134 31.1449 691.538 31.7746 691.113 32.5966C690.702 33.4186 690.49 34.4129 690.477 35.5795ZM722.616 53.517C720.667 53.517 718.937 53.1922 717.425 52.5426C715.927 51.8797 714.741 50.8854 713.866 49.5597C713.004 48.2206 712.573 46.5436 712.573 44.5284C712.573 42.8314 712.871 41.3996 713.468 40.233C714.064 39.0663 714.886 38.1184 715.934 37.3892C716.981 36.66 718.188 36.1098 719.553 35.7386C720.919 35.3542 722.377 35.0956 723.928 34.9631C725.665 34.804 727.063 34.6383 728.124 34.4659C729.185 34.2803 729.954 34.0218 730.431 33.6903C730.921 33.3456 731.167 32.8617 731.167 32.2386V32.1392C731.167 31.1184 730.815 30.3295 730.113 29.7727C729.41 29.2159 728.462 28.9375 727.269 28.9375C725.983 28.9375 724.949 29.2159 724.167 29.7727C723.384 30.3295 722.887 31.0985 722.675 32.0795L713.706 31.7614C713.972 29.9053 714.654 28.2481 715.755 26.7898C716.868 25.3182 718.393 24.1648 720.329 23.3295C722.277 22.4811 724.617 22.0568 727.349 22.0568C729.297 22.0568 731.094 22.2888 732.738 22.7528C734.382 23.2036 735.813 23.8665 737.033 24.7415C738.253 25.6032 739.194 26.6638 739.857 27.9233C740.533 29.1828 740.871 30.6212 740.871 32.2386V53H731.724V48.7443H731.485C730.941 49.7784 730.245 50.6534 729.397 51.3693C728.562 52.0852 727.574 52.6222 726.434 52.9801C725.307 53.3381 724.034 53.517 722.616 53.517ZM725.618 47.1534C726.666 47.1534 727.607 46.9413 728.442 46.517C729.291 46.0928 729.967 45.5095 730.471 44.767C730.974 44.0114 731.226 43.1364 731.226 42.142V39.2386C730.948 39.3845 730.61 39.517 730.212 39.6364C729.828 39.7557 729.403 39.8684 728.939 39.9744C728.475 40.0805 727.998 40.1733 727.508 40.2528C727.017 40.3324 726.546 40.4053 726.096 40.4716C725.181 40.6174 724.399 40.8428 723.749 41.1477C723.113 41.4527 722.622 41.8504 722.277 42.3409C721.946 42.8182 721.78 43.3883 721.78 44.0511C721.78 45.0587 722.138 45.8277 722.854 46.358C723.583 46.8883 724.505 47.1534 725.618 47.1534ZM761.819 22.4545V29.6136H742.549V22.4545H761.819ZM746.586 15.1364H756.31V43.3949C756.31 43.9915 756.403 44.4754 756.589 44.8466C756.787 45.2045 757.073 45.4631 757.444 45.6222C757.815 45.768 758.259 45.8409 758.776 45.8409C759.147 45.8409 759.538 45.8078 759.949 45.7415C760.374 45.6619 760.692 45.5956 760.904 45.5426L762.376 52.5625C761.912 52.6951 761.255 52.8608 760.407 53.0597C759.572 53.2585 758.571 53.3845 757.404 53.4375C755.124 53.5436 753.168 53.2784 751.537 52.642C749.92 51.9924 748.68 50.9848 747.819 49.6193C746.97 48.2538 746.559 46.5369 746.586 44.4688V15.1364ZM784.248 39.8153V22.4545H793.952V53H784.685V47.3125H784.367C783.691 49.1818 782.538 50.6667 780.907 51.767C779.289 52.8542 777.334 53.3977 775.04 53.3977C772.959 53.3977 771.129 52.9205 769.552 51.9659C767.974 51.0114 766.748 49.679 765.873 47.9688C764.998 46.2453 764.554 44.2301 764.54 41.9233V22.4545H774.265V40.0142C774.278 41.6714 774.716 42.9773 775.577 43.9318C776.439 44.8864 777.612 45.3636 779.097 45.3636C780.065 45.3636 780.933 45.1515 781.702 44.7273C782.485 44.2898 783.101 43.66 783.552 42.8381C784.016 42.0028 784.248 40.9953 784.248 39.8153ZM797.902 53V22.4545H807.348V28.0227H807.666C808.223 26.0076 809.131 24.5095 810.391 23.5284C811.65 22.5341 813.115 22.0369 814.785 22.0369C815.236 22.0369 815.7 22.0701 816.178 22.1364C816.655 22.1894 817.099 22.2756 817.51 22.3949V30.8466C817.046 30.6875 816.436 30.5616 815.68 30.4688C814.938 30.3759 814.275 30.3295 813.692 30.3295C812.538 30.3295 811.498 30.5881 810.57 31.1051C809.655 31.6089 808.932 32.3182 808.402 33.233C807.885 34.1345 807.626 35.1951 807.626 36.4148V53H797.902ZM831.925 53.5767C828.73 53.5767 825.972 52.947 823.652 51.6875C821.345 50.4148 819.569 48.6051 818.322 46.2585C817.09 43.8987 816.473 41.0947 816.473 37.8466C816.473 34.6913 817.096 31.9337 818.342 29.5739C819.589 27.2008 821.345 25.358 823.612 24.0455C825.879 22.7197 828.551 22.0568 831.626 22.0568C833.801 22.0568 835.789 22.3949 837.592 23.071C839.395 23.7472 840.953 24.7481 842.266 26.0739C843.578 27.3996 844.599 29.0369 845.328 30.9858C846.057 32.9214 846.422 35.142 846.422 37.6477V40.0739H819.874V34.4261H837.374C837.36 33.392 837.115 32.4706 836.638 31.6619C836.161 30.8532 835.504 30.2235 834.669 29.7727C833.847 29.3087 832.899 29.0767 831.825 29.0767C830.738 29.0767 829.764 29.322 828.902 29.8125C828.04 30.2898 827.358 30.946 826.854 31.7812C826.35 32.6032 826.085 33.5379 826.058 34.5852V40.3324C826.058 41.5786 826.304 42.6723 826.794 43.6136C827.285 44.5417 827.981 45.2642 828.882 45.7812C829.784 46.2983 830.858 46.5568 832.104 46.5568C832.965 46.5568 833.748 46.4375 834.45 46.1989C835.153 45.9602 835.756 45.6089 836.26 45.1449C836.764 44.6809 837.142 44.1108 837.394 43.4347L846.322 43.6932C845.951 45.6951 845.136 47.4384 843.876 48.9233C842.63 50.3949 840.993 51.5417 838.965 52.3636C836.936 53.1723 834.59 53.5767 831.925 53.5767ZM875.816 31.7812L866.887 32.0199C866.794 31.3835 866.542 30.8201 866.132 30.3295C865.721 29.8258 865.184 29.4347 864.521 29.1562C863.871 28.8646 863.115 28.7188 862.254 28.7188C861.127 28.7188 860.166 28.9441 859.37 29.3949C858.588 29.8456 858.203 30.4555 858.217 31.2244C858.203 31.821 858.442 32.3381 858.933 32.7756C859.436 33.2131 860.331 33.5644 861.617 33.8295L867.504 34.9432C870.553 35.5265 872.82 36.4943 874.305 37.8466C875.803 39.1989 876.559 40.9886 876.572 43.2159C876.559 45.3106 875.935 47.1335 874.703 48.6847C873.483 50.2358 871.812 51.4422 869.691 52.304C867.57 53.1525 865.144 53.5767 862.413 53.5767C858.051 53.5767 854.611 52.6818 852.092 50.892C849.586 49.089 848.154 46.6761 847.796 43.6534L857.401 43.4148C857.614 44.5284 858.164 45.3769 859.052 45.9602C859.94 46.5436 861.074 46.8352 862.453 46.8352C863.699 46.8352 864.713 46.6032 865.495 46.1392C866.277 45.6752 866.675 45.0587 866.688 44.2898C866.675 43.6004 866.37 43.0502 865.774 42.6392C865.177 42.215 864.242 41.8835 862.97 41.6449L857.64 40.6307C854.578 40.0739 852.297 39.0464 850.799 37.5483C849.301 36.0369 848.559 34.1146 848.572 31.7812C848.559 29.7396 849.102 27.9962 850.203 26.5511C851.303 25.0928 852.867 23.9792 854.896 23.2102C856.924 22.4413 859.317 22.0568 862.075 22.0568C866.211 22.0568 869.472 22.9252 871.859 24.6619C874.245 26.3854 875.564 28.7585 875.816 31.7812ZM886.776 40.5312V39.7159C886.776 37.4621 886.961 35.6657 887.332 34.3267C887.717 32.9877 888.274 31.9138 889.003 31.1051C889.732 30.2831 890.62 29.5341 891.668 28.858C892.503 28.3277 893.245 27.7907 893.895 27.2472C894.558 26.6903 895.081 26.0937 895.466 25.4574C895.85 24.821 896.043 24.0985 896.043 23.2898C896.043 22.5076 895.857 21.8182 895.486 21.2216C895.115 20.625 894.604 20.1676 893.955 19.8494C893.318 19.518 892.609 19.3523 891.827 19.3523C891.045 19.3523 890.309 19.5312 889.619 19.8892C888.943 20.2472 888.386 20.7576 887.949 21.4205C887.525 22.0701 887.306 22.8589 887.293 23.7869H878.145C878.185 21.0028 878.828 18.7225 880.074 16.946C881.333 15.1695 882.997 13.857 885.065 13.0085C887.134 12.1468 889.414 11.7159 891.906 11.7159C894.637 11.7159 897.064 12.1401 899.185 12.9886C901.319 13.8371 902.996 15.09 904.216 16.7472C905.436 18.4044 906.046 20.4328 906.046 22.8324C906.046 24.41 905.78 25.8021 905.25 27.0085C904.72 28.215 903.977 29.2822 903.023 30.2102C902.081 31.125 900.974 31.9602 899.702 32.7159C898.707 33.2992 897.879 33.9091 897.216 34.5455C896.566 35.1818 896.076 35.911 895.744 36.733C895.413 37.5417 895.247 38.536 895.247 39.7159V40.5312H886.776ZM891.171 53.5767C889.739 53.5767 888.512 53.0729 887.492 52.0653C886.484 51.0578 885.987 49.8381 886 48.4062C885.987 47.0009 886.484 45.8011 887.492 44.8068C888.512 43.7992 889.739 43.2955 891.171 43.2955C892.536 43.2955 893.736 43.7992 894.77 44.8068C895.804 45.8011 896.328 47.0009 896.341 48.4062C896.328 49.3608 896.076 50.2292 895.585 51.0114C895.108 51.7936 894.478 52.4167 893.696 52.8807C892.927 53.3447 892.085 53.5767 891.171 53.5767Z" fill="black"/>
<g filter="url(#filter0_d_370_293)">
<path d="M351.359 88L337.723 35.6364H354.462L361.519 69.1818H361.962L369.53 35.6364H385.859L393.632 68.9432H394.075L400.928 35.6364H417.666L403.996 88H386.166L377.984 57.4886H377.405L369.223 88H351.359ZM443.869 88.9886C438.392 88.9886 433.664 87.9091 429.687 85.75C425.733 83.5682 422.687 80.4659 420.551 76.4432C418.437 72.3977 417.38 67.5909 417.38 62.0227C417.38 56.6136 418.448 51.8864 420.585 47.8409C422.721 43.7727 425.733 40.6136 429.619 38.3636C433.505 36.0909 438.085 34.9545 443.358 34.9545C447.085 34.9545 450.494 35.5341 453.585 36.6932C456.676 37.8523 459.346 39.5682 461.596 41.8409C463.846 44.1136 465.596 46.9205 466.846 50.2614C468.096 53.5795 468.721 57.3864 468.721 61.6818V65.8409H423.21V56.1591H453.21C453.187 54.3864 452.767 52.8068 451.948 51.4205C451.13 50.0341 450.005 48.9545 448.573 48.1818C447.164 47.3864 445.539 46.9886 443.698 46.9886C441.835 46.9886 440.164 47.4091 438.687 48.25C437.21 49.0682 436.039 50.1932 435.176 51.625C434.312 53.0341 433.858 54.6364 433.812 56.4318V66.2841C433.812 68.4205 434.233 70.2955 435.073 71.9091C435.914 73.5 437.108 74.7386 438.653 75.625C440.198 76.5114 442.039 76.9545 444.176 76.9545C445.653 76.9545 446.994 76.75 448.198 76.3409C449.403 75.9318 450.437 75.3295 451.301 74.5341C452.164 73.7386 452.812 72.7614 453.244 71.6023L468.551 72.0455C467.914 75.4773 466.517 78.4659 464.358 81.0114C462.221 83.5341 459.414 85.5 455.937 86.9091C452.46 88.2955 448.437 88.9886 443.869 88.9886ZM473.395 88V18.1818H490.066V44.6023H490.407C491.089 43.0114 492.054 41.4773 493.304 40C494.577 38.5227 496.191 37.3182 498.145 36.3864C500.123 35.4318 502.486 34.9545 505.236 34.9545C508.873 34.9545 512.27 35.9091 515.429 37.8182C518.611 39.7273 521.179 42.6705 523.134 46.6477C525.089 50.625 526.066 55.6932 526.066 61.8523C526.066 67.7841 525.123 72.75 523.236 76.75C521.373 80.75 518.85 83.75 515.668 85.75C512.509 87.75 508.998 88.75 505.134 88.75C502.498 88.75 500.214 88.3182 498.282 87.4545C496.35 86.5909 494.725 85.4545 493.407 84.0455C492.111 82.6364 491.111 81.125 490.407 79.5114H489.895V88H473.395ZM489.725 61.8182C489.725 64.6364 490.1 67.0909 490.85 69.1818C491.623 71.2727 492.725 72.8977 494.157 74.0568C495.611 75.1932 497.35 75.7614 499.373 75.7614C501.418 75.7614 503.157 75.1932 504.589 74.0568C506.02 72.8977 507.1 71.2727 507.827 69.1818C508.577 67.0909 508.952 64.6364 508.952 61.8182C508.952 59 508.577 56.5568 507.827 54.4886C507.1 52.4205 506.02 50.8182 504.589 49.6818C503.179 48.5455 501.441 47.9773 499.373 47.9773C497.327 47.9773 495.589 48.5341 494.157 49.6477C492.725 50.7614 491.623 52.3523 490.85 54.4205C490.1 56.4886 489.725 58.9545 489.725 61.8182ZM557.382 88.9545C552.064 88.9545 547.348 88.0455 543.234 86.2273C539.143 84.3864 535.916 81.8523 533.552 78.625C531.189 75.3977 529.984 71.6818 529.939 67.4773H546.916C546.984 69 547.473 70.3523 548.382 71.5341C549.291 72.6932 550.53 73.6023 552.098 74.2614C553.666 74.9205 555.45 75.25 557.45 75.25C559.45 75.25 561.212 74.8977 562.734 74.1932C564.28 73.4659 565.484 72.4773 566.348 71.2273C567.212 69.9545 567.632 68.5 567.609 66.8636C567.632 65.2273 567.166 63.7727 566.212 62.5C565.257 61.2273 563.905 60.2386 562.155 59.5341C560.427 58.8295 558.382 58.4773 556.018 58.4773H549.234V46.4773H556.018C558.087 46.4773 559.905 46.1364 561.473 45.4545C563.064 44.7727 564.302 43.8182 565.189 42.5909C566.075 41.3409 566.507 39.9091 566.484 38.2955C566.507 36.7273 566.132 35.3523 565.359 34.1705C564.609 32.9659 563.552 32.0341 562.189 31.375C560.848 30.7159 559.291 30.3864 557.518 30.3864C555.655 30.3864 553.962 30.7159 552.439 31.375C550.939 32.0341 549.746 32.9659 548.859 34.1705C547.973 35.375 547.507 36.7727 547.462 38.3636H531.337C531.382 34.2045 532.541 30.5455 534.814 27.3864C537.087 24.2045 540.177 21.7159 544.087 19.9205C548.018 18.125 552.496 17.2273 557.518 17.2273C562.518 17.2273 566.916 18.1023 570.712 19.8523C574.507 21.6023 577.462 23.9886 579.575 27.0114C581.689 30.0114 582.746 33.4091 582.746 37.2045C582.768 41.1364 581.484 44.375 578.893 46.9205C576.325 49.4659 573.018 51.0341 568.973 51.625V52.1705C574.382 52.8068 578.462 54.5568 581.212 57.4205C583.984 60.2841 585.359 63.8636 585.337 68.1591C585.337 72.2045 584.143 75.7955 581.757 78.9318C579.393 82.0455 576.098 84.5 571.871 86.2955C567.666 88.0682 562.837 88.9545 557.382 88.9545Z" fill="url(#paint0_linear_370_293)"/>
</g>
<defs>
<filter id="filter0_d_370_293" x="333.723" y="17.2273" width="255.648" height="79.7614" filterUnits="userSpaceOnUse" color-interpolation-filters="sRGB">
<feFlood flood-opacity="0" result="BackgroundImageFix"/>
<feColorMatrix in="SourceAlpha" type="matrix" values="0 0 0 0 0 0 0 0 0 0 0 0 0 0 0 0 0 0 127 0" result="hardAlpha"/>
<feOffset dy="4"/>
<feGaussianBlur stdDeviation="2"/>
<feComposite in2="hardAlpha" operator="out"/>
<feColorMatrix type="matrix" values="0 0 0 0 0.752941 0 0 0 0 0.662745 0 0 0 0 0.941176 0 0 0 1 0"/>
<feBlend mode="normal" in2="BackgroundImageFix" result="effect1_dropShadow_370_293"/>
<feBlend mode="normal" in="SourceGraphic" in2="effect1_dropShadow_370_293" result="shape"/>
</filter>
<linearGradient id="paint0_linear_370_293" x1="447.268" y1="53" x2="478.733" y2="53" gradientUnits="userSpaceOnUse">
<stop/>
<stop offset="1" stop-color="#6E036A"/>
</linearGradient>
</defs>
</svg>
